<svg width="354" height="68" viewBox="0 0 354 68" fill="none" xmlns="http://www.w3.org/2000/svg">
    <rect x="8" y="11.9861" width="338" height="45.014" rx="7" fill="url(#paint0_linear_1200_558)" fill-opacity="0.3"
        stroke="url(#paint1_linear_1200_558)" stroke-width="2" />
    <g filter="url(#filter0_f_1200_558)">
        <rect x="8" y="11.9861" width="338" height="45.014" rx="7" stroke="url(#paint2_linear_1200_558)"
            stroke-width="2" />
    </g>
    <g filter="url(#filter1_d_1200_558)">
        <path
            d="M128.772 26.7746V29.713C127.339 28.5135 125.855 27.9138 124.322 27.9138C122.633 27.9138 121.21 28.5206 120.053 29.7343C118.889 30.9409 118.307 32.4172 118.307 34.1631C118.307 35.8878 118.889 37.3428 120.053 38.5281C121.217 39.7134 122.644 40.3061 124.333 40.3061C125.206 40.3061 125.948 40.1641 126.558 39.8802C126.899 39.7383 127.25 39.5466 127.612 39.3053C127.981 39.064 128.368 38.773 128.772 38.4323V41.4239C127.353 42.2259 125.862 42.6269 124.301 42.6269C121.952 42.6269 119.947 41.8072 118.286 40.1677C116.632 38.5139 115.805 36.5195 115.805 34.1844C115.805 32.0907 116.497 30.224 117.881 28.5845C119.585 26.5759 121.788 25.5716 124.493 25.5716C125.969 25.5716 127.395 25.9726 128.772 26.7746Z"
            fill="white" />
        <path
            d="M131.668 34.0354C131.668 31.7216 132.516 29.7343 134.213 28.0735C135.902 26.4126 137.932 25.5822 140.302 25.5822C142.644 25.5822 144.653 26.4197 146.328 28.0948C148.01 29.7698 148.851 31.7819 148.851 34.1312C148.851 36.4947 148.007 38.4997 146.317 40.1464C144.621 41.8001 142.574 42.6269 140.175 42.6269C138.052 42.6269 136.147 41.8924 134.457 40.4232C132.598 38.7978 131.668 36.6686 131.668 34.0354ZM134.17 34.0673C134.17 35.8843 134.78 37.3783 136.001 38.5494C137.215 39.7205 138.617 40.3061 140.206 40.3061C141.931 40.3061 143.386 39.7099 144.571 38.5175C145.757 37.3109 146.349 35.8417 146.349 34.1099C146.349 32.3568 145.764 30.8876 144.593 29.7023C143.429 28.51 141.988 27.9138 140.27 27.9138C138.56 27.9138 137.116 28.51 135.937 29.7023C134.759 30.8805 134.17 32.3355 134.17 34.0673Z"
            fill="white" />
        <path
            d="M152.077 42.3289L155.537 24.656L161.18 37.4316L167.024 24.656L170.133 42.3289H167.589L166.002 32.4065L161.137 43.0847L156.41 32.3959L154.643 42.3289H152.077Z"
            fill="white" />
        <path
            d="M176.787 35.6536V42.3289H174.307V25.891H177.117C178.494 25.891 179.534 25.9868 180.237 26.1784C180.946 26.3701 181.571 26.732 182.11 27.2643C183.054 28.187 183.526 29.351 183.526 30.7563C183.526 32.261 183.022 33.4534 182.014 34.3335C181.007 35.2136 179.647 35.6536 177.937 35.6536H176.787ZM176.787 33.354H177.713C179.992 33.354 181.131 32.4775 181.131 30.7244C181.131 29.0281 179.956 28.1799 177.607 28.1799H176.787V33.354Z"
            fill="white" />
        <path
            d="M189.243 25.891V35.792C189.243 37.2044 189.474 38.2371 189.935 38.8901C190.624 39.8341 191.593 40.3061 192.842 40.3061C194.098 40.3061 195.07 39.8341 195.759 38.8901C196.22 38.2584 196.451 37.2257 196.451 35.792V25.891H198.931V36.4734C198.931 38.2052 198.392 39.6318 197.313 40.7532C196.1 42.0024 194.609 42.6269 192.842 42.6269C191.074 42.6269 189.588 42.0024 188.381 40.7532C187.302 39.6318 186.763 38.2052 186.763 36.4734V25.891H189.243Z"
            fill="white" />
        <path d="M208.098 28.2225V42.3289H205.617V28.2225H201.838V25.891H211.867V28.2225H208.098Z" fill="white" />
        <path
            d="M223.833 28.2225H217.243V32.1723H223.641V34.5038H217.243V39.9973H223.833V42.3289H214.762V25.891H223.833V28.2225Z"
            fill="white" />
        <path
            d="M233.34 35.3236L238.429 42.3289H235.395L230.7 35.6004H230.253V42.3289H227.772V25.891H230.679C232.851 25.891 234.419 26.2991 235.384 27.1153C236.449 28.0238 236.981 29.2233 236.981 30.7137C236.981 31.8777 236.648 32.8785 235.981 33.716C235.313 34.5535 234.433 35.0894 233.34 35.3236ZM230.253 33.4392H231.041C233.39 33.4392 234.565 32.5414 234.565 30.7457C234.565 29.0636 233.422 28.2225 231.136 28.2225H230.253V33.4392Z"
            fill="white" />
    </g>
    <defs>
        <filter id="filter0_f_1200_558" x="0" y="3.98608" width="354" height="61.0139" filterUnits="userSpaceOnUse"
            color-interpolation-filters="sRGB">
            <feFlood flood-opacity="0" result="BackgroundImageFix" />
            <feBlend mode="normal" in="SourceGraphic" in2="BackgroundImageFix" result="shape" />
            <feGaussianBlur stdDeviation="3.5" result="effect1_foregroundBlur_1200_558" />
        </filter>
        <filter id="filter1_d_1200_558" x="91.8052" y="0.656006" width="170.624" height="66.4287"
            filterUnits="userSpaceOnUse" color-interpolation-filters="sRGB">
            <feFlood flood-opacity="0" result="BackgroundImageFix" />
            <feColorMatrix in="SourceAlpha" type="matrix" values="0 0 0 0 0 0 0 0 0 0 0 0 0 0 0 0 0 0 127 0"
                result="hardAlpha" />
            <feOffset />
            <feGaussianBlur stdDeviation="12" />
            <feComposite in2="hardAlpha" operator="out" />
            <feColorMatrix type="matrix" values="0 0 0 0 1 0 0 0 0 1 0 0 0 0 1 0 0 0 0.5 0" />
            <feBlend mode="normal" in2="BackgroundImageFix" result="effect1_dropShadow_1200_558" />
            <feBlend mode="normal" in="SourceGraphic" in2="effect1_dropShadow_1200_558" result="shape" />
        </filter>
        <linearGradient id="paint0_linear_1200_558" x1="177" y1="105.355" x2="177" y2="-0.597082"
            gradientUnits="userSpaceOnUse">
            <stop stop-color="#EAEAEA" />
            <stop offset="1" stop-color="#D9D9D9" stop-opacity="0" />
        </linearGradient>
        <linearGradient id="paint1_linear_1200_558" x1="177" y1="10.9861" x2="177" y2="58.0001"
            gradientUnits="userSpaceOnUse">
            <stop stop-color="white" />
            <stop offset="1" stop-color="#151515" stop-opacity="0.82" />
        </linearGradient>
        <linearGradient id="paint2_linear_1200_558" x1="177" y1="10.9861" x2="177" y2="58.0001"
            gradientUnits="userSpaceOnUse">
            <stop stop-color="white" />
            <stop offset="1" stop-color="#151515" stop-opacity="0.82" />
        </linearGradient>
    </defs>
</svg>