<svg width="189" height="51" viewBox="0 0 189 51" fill="none" xmlns="http://www.w3.org/2000/svg">
    <g filter="url(#filter0_d_1201_566)">
        <path
            d="M24.622 21.2993H32.1704V21.9027C32.1704 23.2751 32.0088 24.4898 31.6854 25.5468C31.3699 26.5248 30.8374 27.4398 30.0881 28.2916C28.3923 30.2004 26.235 31.1548 23.6164 31.1548C21.0608 31.1548 18.872 30.232 17.0499 28.3863C15.2279 26.5327 14.3169 24.3084 14.3169 21.7134C14.3169 19.0632 15.2437 16.8152 17.0973 14.9695C18.9509 13.1159 21.2067 12.1891 23.8648 12.1891C25.2925 12.1891 26.6255 12.481 27.8638 13.0647C29.047 13.6483 30.2104 14.5948 31.3541 15.9042L29.3901 17.7854C27.8914 15.7898 26.0655 14.792 23.9121 14.792C21.9797 14.792 20.3588 15.4585 19.0494 16.7915C17.7401 18.1009 17.0854 19.7415 17.0854 21.7134C17.0854 23.7484 17.815 25.4245 19.2742 26.7417C20.6388 27.9643 22.1177 28.5756 23.711 28.5756C25.0677 28.5756 26.2863 28.1181 27.3669 27.2032C28.4475 26.2803 29.0509 25.176 29.1771 23.8904H24.622V21.2993Z"
            fill="white" />
        <path
            d="M24.622 21.2993H32.1704V21.9027C32.1704 23.2751 32.0088 24.4898 31.6854 25.5468C31.3699 26.5248 30.8374 27.4398 30.0881 28.2916C28.3923 30.2004 26.235 31.1548 23.6164 31.1548C21.0608 31.1548 18.872 30.232 17.0499 28.3863C15.2279 26.5327 14.3169 24.3084 14.3169 21.7134C14.3169 19.0632 15.2437 16.8152 17.0973 14.9695C18.9509 13.1159 21.2067 12.1891 23.8648 12.1891C25.2925 12.1891 26.6255 12.481 27.8638 13.0647C29.047 13.6483 30.2104 14.5948 31.3541 15.9042L29.3901 17.7854C27.8914 15.7898 26.0655 14.792 23.9121 14.792C21.9797 14.792 20.3588 15.4585 19.0494 16.7915C17.7401 18.1009 17.0854 19.7415 17.0854 21.7134C17.0854 23.7484 17.815 25.4245 19.2742 26.7417C20.6388 27.9643 22.1177 28.5756 23.711 28.5756C25.0677 28.5756 26.2863 28.1181 27.3669 27.2032C28.4475 26.2803 29.0509 25.176 29.1771 23.8904H24.622V21.2993Z"
            fill="url(#paint0_linear_1201_566)" fill-opacity="0.8" />
        <path
            d="M46.1575 26.375H38.337L36.302 30.8117H33.3323L42.3715 11.3964L51.0912 30.8117H48.0742L46.1575 26.375ZM45.0335 23.7839L42.3241 17.5724L39.4846 23.7839H45.0335Z"
            fill="white" />
        <path
            d="M46.1575 26.375H38.337L36.302 30.8117H33.3323L42.3715 11.3964L51.0912 30.8117H48.0742L46.1575 26.375ZM45.0335 23.7839L42.3241 17.5724L39.4846 23.7839H45.0335Z"
            fill="url(#paint1_linear_1201_566)" fill-opacity="0.8" />
        <path
            d="M53.3533 30.8117L57.1985 11.1716L63.4692 25.3693L69.9646 11.1716L73.4194 30.8117H70.5917L68.8288 19.7849L63.4219 31.6517L58.1687 19.773L56.2047 30.8117H53.3533Z"
            fill="white" />
        <path
            d="M53.3533 30.8117L57.1985 11.1716L63.4692 25.3693L69.9646 11.1716L73.4194 30.8117H70.5917L68.8288 19.7849L63.4219 31.6517L58.1687 19.773L56.2047 30.8117H53.3533Z"
            fill="url(#paint2_linear_1201_566)" fill-opacity="0.8" />
        <path
            d="M87.9862 15.1351H80.6625V19.5246H87.7732V22.1157H80.6625V28.2206H87.9862V30.8117H77.9058V12.5441H87.9862V15.1351Z"
            fill="white" />
        <path
            d="M87.9862 15.1351H80.6625V19.5246H87.7732V22.1157H80.6625V28.2206H87.9862V30.8117H77.9058V12.5441H87.9862V15.1351Z"
            fill="url(#paint3_linear_1201_566)" fill-opacity="0.8" />
        <path
            d="M99.6566 30.8117L103.502 11.1716L109.772 25.3693L116.268 11.1716L119.723 30.8117H116.895L115.132 19.7849L109.725 31.6517L104.472 19.773L102.508 30.8117H99.6566Z"
            fill="white" />
        <path
            d="M99.6566 30.8117L103.502 11.1716L109.772 25.3693L116.268 11.1716L119.723 30.8117H116.895L115.132 19.7849L109.725 31.6517L104.472 19.773L102.508 30.8117H99.6566Z"
            fill="url(#paint4_linear_1201_566)" fill-opacity="0.8" />
        <path
            d="M123.298 21.5951C123.298 19.0237 124.241 16.8152 126.126 14.9695C128.003 13.1238 130.259 12.201 132.893 12.201C135.496 12.201 137.728 13.1317 139.59 14.9932C141.459 16.8546 142.394 19.0908 142.394 21.7016C142.394 24.3281 141.455 26.5564 139.578 28.3863C137.693 30.2241 135.417 31.143 132.751 31.143C130.393 31.143 128.275 30.3266 126.398 28.6939C124.331 26.8876 123.298 24.5214 123.298 21.5951ZM126.078 21.6306C126.078 23.6498 126.757 25.3101 128.113 26.6116C129.462 27.913 131.02 28.5638 132.787 28.5638C134.704 28.5638 136.321 27.9012 137.638 26.5761C138.955 25.2352 139.614 23.6025 139.614 21.6779C139.614 19.7297 138.963 18.0969 137.661 16.7797C136.368 15.4546 134.767 14.792 132.858 14.792C130.957 14.792 129.352 15.4546 128.042 16.7797C126.733 18.089 126.078 19.706 126.078 21.6306Z"
            fill="white" />
        <path
            d="M123.298 21.5951C123.298 19.0237 124.241 16.8152 126.126 14.9695C128.003 13.1238 130.259 12.201 132.893 12.201C135.496 12.201 137.728 13.1317 139.59 14.9932C141.459 16.8546 142.394 19.0908 142.394 21.7016C142.394 24.3281 141.455 26.5564 139.578 28.3863C137.693 30.2241 135.417 31.143 132.751 31.143C130.393 31.143 128.275 30.3266 126.398 28.6939C124.331 26.8876 123.298 24.5214 123.298 21.5951ZM126.078 21.6306C126.078 23.6498 126.757 25.3101 128.113 26.6116C129.462 27.913 131.02 28.5638 132.787 28.5638C134.704 28.5638 136.321 27.9012 137.638 26.5761C138.955 25.2352 139.614 23.6025 139.614 21.6779C139.614 19.7297 138.963 18.0969 137.661 16.7797C136.368 15.4546 134.767 14.792 132.858 14.792C130.957 14.792 129.352 15.4546 128.042 16.7797C126.733 18.089 126.078 19.706 126.078 21.6306Z"
            fill="url(#paint5_linear_1201_566)" fill-opacity="0.8" />
        <path
            d="M146.466 30.8117V12.5441H150.3C152.137 12.5441 153.589 12.7255 154.654 13.0883C155.797 13.4433 156.835 14.0467 157.765 14.8985C159.65 16.618 160.593 18.8778 160.593 21.6779C160.593 24.4859 159.611 26.7575 157.647 28.4928C156.661 29.3604 155.628 29.9638 154.547 30.303C153.538 30.6421 152.106 30.8117 150.252 30.8117H146.466ZM149.223 28.2206H150.465C151.704 28.2206 152.733 28.0905 153.553 27.8302C154.374 27.5541 155.115 27.1164 155.778 26.5169C157.134 25.2786 157.813 23.6656 157.813 21.6779C157.813 19.6744 157.142 18.0496 155.801 16.8034C154.594 15.6912 152.816 15.1351 150.465 15.1351H149.223V28.2206Z"
            fill="white" />
        <path
            d="M146.466 30.8117V12.5441H150.3C152.137 12.5441 153.589 12.7255 154.654 13.0883C155.797 13.4433 156.835 14.0467 157.765 14.8985C159.65 16.618 160.593 18.8778 160.593 21.6779C160.593 24.4859 159.611 26.7575 157.647 28.4928C156.661 29.3604 155.628 29.9638 154.547 30.303C153.538 30.6421 152.106 30.8117 150.252 30.8117H146.466ZM149.223 28.2206H150.465C151.704 28.2206 152.733 28.0905 153.553 27.8302C154.374 27.5541 155.115 27.1164 155.778 26.5169C157.134 25.2786 157.813 23.6656 157.813 21.6779C157.813 19.6744 157.142 18.0496 155.801 16.8034C154.594 15.6912 152.816 15.1351 150.465 15.1351H149.223V28.2206Z"
            fill="url(#paint6_linear_1201_566)" fill-opacity="0.8" />
        <path
            d="M174.758 15.1351H167.434V19.5246H174.545V22.1157H167.434V28.2206H174.758V30.8117H164.677V12.5441H174.758V15.1351Z"
            fill="white" />
        <path
            d="M174.758 15.1351H167.434V19.5246H174.545V22.1157H167.434V28.2206H174.758V30.8117H164.677V12.5441H174.758V15.1351Z"
            fill="url(#paint7_linear_1201_566)" fill-opacity="0.8" />
    </g>
    <g filter="url(#filter1_d_1201_566)">
        <path fill-rule="evenodd" clip-rule="evenodd"
            d="M24.3798 21.057H32.4129V21.9027C32.4129 23.2936 32.2491 24.533 31.9172 25.6177L31.9161 25.6212C31.5894 26.634 31.0391 27.5775 30.2702 28.4517L30.2694 28.4526C28.5262 30.4146 26.3024 31.3972 23.6165 31.3972C20.995 31.3972 18.7444 30.4476 16.8776 28.5565C15.0111 26.6577 14.0747 24.3721 14.0747 21.7134C14.0747 18.9998 15.0264 16.6898 16.9262 14.798C18.8259 12.8984 21.1437 11.9468 23.8649 11.9468C25.3267 11.9468 26.6952 12.2459 27.9673 12.8455L27.9712 12.8473C29.1905 13.4489 30.3783 14.4186 31.5367 15.7448L31.6889 15.9191L29.3605 18.1494L29.1964 17.9309C27.7353 15.9853 25.9766 15.0344 23.9123 15.0344C22.0423 15.0344 20.4845 15.6765 19.2224 16.9614L19.2209 16.9629C17.9602 18.2236 17.3279 19.8012 17.3279 21.7134C17.3279 23.6825 18.0303 25.2922 19.4365 26.5616C20.7636 27.7505 22.1866 28.3333 23.7111 28.3333C25.0076 28.3333 26.1712 27.8981 27.21 27.0187C28.1715 26.1974 28.7304 25.237 28.9024 24.1327H24.3798V21.057ZM29.1772 23.8904C29.1692 23.9719 29.1593 24.0527 29.1475 24.1327C28.9726 25.3153 28.3791 26.3388 27.367 27.2032C26.2864 28.1181 25.0678 28.5756 23.7111 28.5756C22.1178 28.5756 20.6389 27.9643 19.2744 26.7417C17.8152 25.4245 17.0856 23.7484 17.0856 21.7134C17.0856 19.7415 17.7402 18.1009 19.0496 16.7916C20.3589 15.4586 21.9798 14.7921 23.9123 14.7921C25.9949 14.7921 27.7714 15.7254 29.2416 17.5922C29.2915 17.6555 29.341 17.7199 29.3902 17.7854L31.3542 15.9042C30.2105 14.5949 29.0471 13.6484 27.8639 13.0647C26.6256 12.481 25.2926 12.1891 23.8649 12.1891C21.2068 12.1891 18.951 13.1159 17.0974 14.9695C15.2438 16.8152 14.317 19.0632 14.317 21.7134C14.317 24.3084 15.228 26.5327 17.0501 28.3863C18.8721 30.232 21.0609 31.1548 23.6165 31.1548C26.2352 31.1548 28.3924 30.2005 30.0882 28.2917C30.8376 27.4398 31.37 26.5248 31.6855 25.5468C32.0089 24.4898 32.1706 23.2752 32.1706 21.9027V21.2993H24.6221V23.8904H29.1772ZM48.0743 30.8117L46.1576 26.375H38.3371L36.3021 30.8117H33.3324L42.3716 11.3964L51.0913 30.8117H48.0743ZM38.4925 26.6173L36.4575 31.054H32.9523L42.3755 10.8138L51.4658 31.054H47.915L45.9984 26.6173H38.4925ZM42.3243 17.5724L39.4847 23.7839H45.0336L42.3243 17.5724ZM42.3191 18.1666L39.8619 23.5416H44.6636L42.3191 18.1666ZM53.0591 31.054L57.109 10.3688L63.4732 24.7784L70.0684 10.3625L73.7081 31.054H70.3851L68.7164 20.6162L63.4187 32.2434L58.2683 20.5971L56.4078 31.054H53.0591ZM58.1688 19.7731L63.422 31.6518L68.8289 19.7849L70.5918 30.8117H73.4195L69.9647 11.1716L63.4693 25.3693L57.1987 11.1716L53.3535 30.8117H56.2048L58.1688 19.7731ZM88.2286 15.3775H80.905V19.2823H88.0156V22.358H80.905V27.9784H88.2286V31.054H77.6636V12.3018H88.2286V15.3775ZM80.6627 28.2207V22.1157H87.7733V19.5246H80.6627V15.1352H87.9863V12.5441H77.9059V30.8117H87.9863V28.2207H80.6627ZM99.3624 31.054L103.412 10.3688L109.776 24.7784L116.372 10.3625L120.011 31.054H116.688L115.02 20.6162L109.722 32.2434L104.572 20.5971L102.711 31.054H99.3624ZM104.472 19.7731L109.725 31.6518L115.132 19.7849L116.895 30.8117H119.723L116.268 11.1716L109.773 25.3693L103.502 11.1716L99.6568 30.8117H102.508L104.472 19.7731ZM126.239 28.8764C124.116 27.0208 123.056 24.5861 123.056 21.5951C123.056 18.9569 124.026 16.6866 125.956 14.7967C127.879 12.9065 130.196 11.9587 132.893 11.9587C135.561 11.9587 137.855 12.9154 139.761 14.8215C141.675 16.7279 142.636 19.0256 142.636 21.7016C142.636 24.3933 141.671 26.6842 139.747 28.5598C137.816 30.4424 135.48 31.3853 132.751 31.3853C130.331 31.3853 128.157 30.5452 126.239 28.8764ZM139.59 14.9932C137.729 13.1317 135.496 12.201 132.893 12.201C130.259 12.201 128.003 13.1238 126.126 14.9695C124.241 16.8152 123.298 19.0237 123.298 21.5951C123.298 24.5214 124.331 26.8877 126.398 28.6939C128.275 30.3267 130.393 31.143 132.751 31.143C135.417 31.143 137.693 30.2241 139.578 28.3863C141.455 26.5564 142.394 24.3281 142.394 21.7016C142.394 19.0908 141.459 16.8547 139.59 14.9932ZM128.281 26.4367L128.282 26.4372C129.588 27.698 131.087 28.3215 132.787 28.3215C134.641 28.3215 136.195 27.6835 137.466 26.4057C138.737 25.1115 139.371 23.5404 139.371 21.6779C139.371 19.7898 138.743 18.2193 137.489 16.95L137.488 16.949C136.242 15.6722 134.704 15.0344 132.858 15.0344C131.02 15.0344 129.478 15.672 128.215 16.95L128.214 16.9511C126.952 18.213 126.321 19.7675 126.321 21.6306C126.321 23.5892 126.976 25.1846 128.281 26.4367ZM137.638 26.5761C136.321 27.9012 134.704 28.5638 132.787 28.5638C131.02 28.5638 129.462 27.9131 128.114 26.6116C126.757 25.3101 126.079 23.6498 126.079 21.6306C126.079 19.706 126.733 18.0891 128.043 16.7797C129.352 15.4546 130.957 14.7921 132.858 14.7921C134.767 14.7921 136.368 15.4546 137.662 16.7797C138.963 18.097 139.614 19.7297 139.614 21.6779C139.614 23.6025 138.955 25.2352 137.638 26.5761ZM146.224 31.054V12.3018H150.3C152.148 12.3018 153.628 12.4835 154.729 12.8579C155.907 13.2241 156.974 13.8459 157.929 14.7198C159.869 16.4899 160.835 18.8172 160.835 21.6779C160.835 24.5498 159.828 26.8895 157.808 28.6744C156.801 29.5602 155.739 30.1825 154.622 30.5335C153.576 30.8844 152.115 31.054 150.252 31.054H146.224ZM154.547 30.303C155.628 29.9638 156.661 29.3604 157.647 28.4928C159.611 26.7575 160.593 24.4859 160.593 21.6779C160.593 18.8778 159.651 16.618 157.765 14.8985C156.835 14.0467 155.797 13.4433 154.654 13.0883C153.589 12.7255 152.138 12.5441 150.3 12.5441H146.466V30.8117H150.252C152.106 30.8117 153.538 30.6422 154.547 30.303ZM149.465 27.9784H150.465C151.688 27.9784 152.69 27.8498 153.478 27.5999C154.265 27.3348 154.977 26.9147 155.615 26.3374C156.917 25.1491 157.57 23.6034 157.57 21.6779C157.57 19.7351 156.923 18.1772 155.637 16.9815C154.491 15.9255 152.781 15.3775 150.465 15.3775H149.465V27.9784ZM149.223 28.2207V15.1352H150.465C152.816 15.1352 154.595 15.6912 155.801 16.8034C157.142 18.0496 157.813 19.6745 157.813 21.6779C157.813 23.6656 157.134 25.2786 155.778 26.5169C155.115 27.1164 154.374 27.5542 153.553 27.8302C152.733 28.0905 151.704 28.2207 150.465 28.2207H149.223ZM175 15.3775H167.676V19.2823H174.787V22.358H167.676V27.9784H175V31.054H164.435V12.3018H175V15.3775ZM167.434 28.2207V22.1157H174.545V19.5246H167.434V15.1352H174.758V12.5441H164.677V30.8117H174.758V28.2207H167.434Z"
            fill="white" />
    </g>
    <defs>
        <filter id="filter0_d_1201_566" x="0.316895" y="1.17163" width="188.44" height="48.4802"
            filterUnits="userSpaceOnUse" color-interpolation-filters="sRGB">
            <feFlood flood-opacity="0" result="BackgroundImageFix" />
            <feColorMatrix in="SourceAlpha" type="matrix" values="0 0 0 0 0 0 0 0 0 0 0 0 0 0 0 0 0 0 127 0"
                result="hardAlpha" />
            <feOffset dy="4" />
            <feGaussianBlur stdDeviation="7" />
            <feComposite in2="hardAlpha" operator="out" />
            <feColorMatrix type="matrix" values="0 0 0 0 0 0 0 0 0 0 0 0 0 0 0 0 0 0 0.25 0" />
            <feBlend mode="normal" in2="BackgroundImageFix" result="effect1_dropShadow_1201_566" />
            <feBlend mode="normal" in="SourceGraphic" in2="effect1_dropShadow_1201_566" result="shape" />
        </filter>
        <filter id="filter1_d_1201_566" x="0.074707" y="0.362549" width="188.925" height="49.8809"
            filterUnits="userSpaceOnUse" color-interpolation-filters="sRGB">
            <feFlood flood-opacity="0" result="BackgroundImageFix" />
            <feColorMatrix in="SourceAlpha" type="matrix" values="0 0 0 0 0 0 0 0 0 0 0 0 0 0 0 0 0 0 127 0"
                result="hardAlpha" />
            <feOffset dy="4" />
            <feGaussianBlur stdDeviation="7" />
            <feComposite in2="hardAlpha" operator="out" />
            <feColorMatrix type="matrix" values="0 0 0 0 0 0 0 0 0 0 0 0 0 0 0 0 0 0 0.25 0" />
            <feBlend mode="normal" in2="BackgroundImageFix" result="effect1_dropShadow_1201_566" />
            <feBlend mode="normal" in="SourceGraphic" in2="effect1_dropShadow_1201_566" result="shape" />
        </filter>
        <linearGradient id="paint0_linear_1201_566" x1="94.8176" y1="10.2157" x2="94.8176" y2="21.1195"
            gradientUnits="userSpaceOnUse">
            <stop stop-color="white" />
            <stop offset="1" stop-color="white" stop-opacity="0" />
        </linearGradient>
        <linearGradient id="paint1_linear_1201_566" x1="94.8176" y1="10.2157" x2="94.8176" y2="21.1195"
            gradientUnits="userSpaceOnUse">
            <stop stop-color="white" />
            <stop offset="1" stop-color="white" stop-opacity="0" />
        </linearGradient>
        <linearGradient id="paint2_linear_1201_566" x1="94.8176" y1="10.2157" x2="94.8176" y2="21.1195"
            gradientUnits="userSpaceOnUse">
            <stop stop-color="white" />
            <stop offset="1" stop-color="white" stop-opacity="0" />
        </linearGradient>
        <linearGradient id="paint3_linear_1201_566" x1="94.8176" y1="10.2157" x2="94.8176" y2="21.1195"
            gradientUnits="userSpaceOnUse">
            <stop stop-color="white" />
            <stop offset="1" stop-color="white" stop-opacity="0" />
        </linearGradient>
        <linearGradient id="paint4_linear_1201_566" x1="94.8176" y1="10.2157" x2="94.8176" y2="21.1195"
            gradientUnits="userSpaceOnUse">
            <stop stop-color="white" />
            <stop offset="1" stop-color="white" stop-opacity="0" />
        </linearGradient>
        <linearGradient id="paint5_linear_1201_566" x1="94.8176" y1="10.2157" x2="94.8176" y2="21.1195"
            gradientUnits="userSpaceOnUse">
            <stop stop-color="white" />
            <stop offset="1" stop-color="white" stop-opacity="0" />
        </linearGradient>
        <linearGradient id="paint6_linear_1201_566" x1="94.8176" y1="10.2157" x2="94.8176" y2="21.1195"
            gradientUnits="userSpaceOnUse">
            <stop stop-color="white" />
            <stop offset="1" stop-color="white" stop-opacity="0" />
        </linearGradient>
        <linearGradient id="paint7_linear_1201_566" x1="94.8176" y1="10.2157" x2="94.8176" y2="21.1195"
            gradientUnits="userSpaceOnUse">
            <stop stop-color="white" />
            <stop offset="1" stop-color="white" stop-opacity="0" />
        </linearGradient>
    </defs>
</svg>