<svg width="354" height="68" viewBox="0 0 354 68" fill="none" xmlns="http://www.w3.org/2000/svg">
    <rect x="8" y="10" width="338" height="45.014" rx="7" fill="url(#paint0_linear_1200_562)" fill-opacity="0.3"
        stroke="url(#paint1_linear_1200_562)" stroke-width="2" />
    <g filter="url(#filter0_f_1200_562)">
        <rect x="8" y="10" width="338" height="45.014" rx="7" stroke="url(#paint2_linear_1200_562)" stroke-width="2" />
    </g>
    <g filter="url(#filter1_d_1200_562)">
        <path d="M116.699 25.9488V42.3867H114.219V25.9488H116.699Z" fill="white" />
        <path
            d="M120.756 42.3867L124.216 24.7139L129.858 37.4894L135.703 24.7139L138.812 42.3867H136.267L134.681 32.4644L129.816 43.1426L125.089 32.4537L123.321 42.3867H120.756Z"
            fill="white" />
        <path
            d="M145.466 35.7115V42.3867H142.985V25.9488H145.796C147.173 25.9488 148.212 26.0447 148.915 26.2363C149.625 26.4279 150.249 26.7899 150.789 27.3222C151.733 28.2449 152.205 29.4089 152.205 30.8142C152.205 32.3189 151.701 33.5113 150.693 34.3913C149.685 35.2714 148.326 35.7115 146.615 35.7115H145.466ZM145.466 33.4119H146.392C148.67 33.4119 149.809 32.5353 149.809 30.7823C149.809 29.0859 148.635 28.2378 146.285 28.2378H145.466V33.4119Z"
            fill="white" />
        <path
            d="M154.621 34.0933C154.621 31.7795 155.47 29.7921 157.166 28.1313C158.855 26.4705 160.885 25.6401 163.256 25.6401C165.598 25.6401 167.606 26.4776 169.281 28.1526C170.963 29.8276 171.805 31.8398 171.805 34.1891C171.805 36.5525 170.96 38.5576 169.271 40.2042C167.574 41.8579 165.527 42.6848 163.128 42.6848C161.006 42.6848 159.1 41.9502 157.411 40.481C155.551 38.8557 154.621 36.7264 154.621 34.0933ZM157.123 34.1252C157.123 35.9422 157.734 37.4362 158.954 38.6073C160.168 39.7784 161.57 40.3639 163.16 40.3639C164.884 40.3639 166.339 39.7677 167.525 38.5753C168.71 37.3688 169.303 35.8996 169.303 34.1678C169.303 32.4147 168.717 30.9455 167.546 29.7602C166.382 28.5678 164.941 27.9716 163.224 27.9716C161.513 27.9716 160.069 28.5678 158.891 29.7602C157.712 30.9384 157.123 32.3934 157.123 34.1252Z"
            fill="white" />
        <path
            d="M184.899 28.3975L182.887 29.5899C182.511 28.9369 182.153 28.511 181.812 28.3123C181.457 28.0852 180.999 27.9716 180.439 27.9716C179.75 27.9716 179.179 28.1668 178.725 28.5572C178.27 28.9404 178.043 29.4231 178.043 30.0051C178.043 30.8071 178.639 31.453 179.832 31.9427L181.471 32.6134C182.806 33.1528 183.782 33.8129 184.399 34.5936C185.017 35.3673 185.325 36.3183 185.325 37.4468C185.325 38.9586 184.821 40.2078 183.814 41.1943C182.799 42.188 181.539 42.6848 180.034 42.6848C178.608 42.6848 177.429 42.2625 176.5 41.4179C175.584 40.5733 175.013 39.3845 174.786 37.8514L177.298 37.2978C177.412 38.263 177.61 38.9302 177.894 39.2993C178.405 40.009 179.15 40.3639 180.13 40.3639C180.904 40.3639 181.546 40.1049 182.057 39.5867C182.568 39.0686 182.823 38.4121 182.823 37.6172C182.823 37.2978 182.777 37.0068 182.685 36.7442C182.6 36.4745 182.461 36.2296 182.27 36.0096C182.085 35.7825 181.844 35.5731 181.546 35.3815C181.248 35.1827 180.893 34.9946 180.481 34.8172L178.895 34.1571C176.645 33.2061 175.52 31.8149 175.52 29.9838C175.52 28.7488 175.992 27.7161 176.936 26.8857C177.88 26.0482 179.055 25.6294 180.46 25.6294C182.355 25.6294 183.835 26.5521 184.899 28.3975Z"
            fill="white" />
        <path
            d="M198.293 28.3975L196.28 29.5899C195.904 28.9369 195.546 28.511 195.205 28.3123C194.85 28.0852 194.392 27.9716 193.832 27.9716C193.143 27.9716 192.572 28.1668 192.118 28.5572C191.663 28.9404 191.436 29.4231 191.436 30.0051C191.436 30.8071 192.033 31.453 193.225 31.9427L194.864 32.6134C196.199 33.1528 197.175 33.8129 197.792 34.5936C198.41 35.3673 198.718 36.3183 198.718 37.4468C198.718 38.9586 198.214 40.2078 197.207 41.1943C196.192 42.188 194.932 42.6848 193.427 42.6848C192.001 42.6848 190.822 42.2625 189.893 41.4179C188.977 40.5733 188.406 39.3845 188.179 37.8514L190.691 37.2978C190.805 38.263 191.003 38.9302 191.287 39.2993C191.798 40.009 192.544 40.3639 193.523 40.3639C194.297 40.3639 194.939 40.1049 195.45 39.5867C195.961 39.0686 196.216 38.4121 196.216 37.6172C196.216 37.2978 196.17 37.0068 196.078 36.7442C195.993 36.4745 195.855 36.2296 195.663 36.0096C195.478 35.7825 195.237 35.5731 194.939 35.3815C194.641 35.1827 194.286 34.9946 193.874 34.8172L192.288 34.1571C190.038 33.2061 188.913 31.8149 188.913 29.9838C188.913 28.7488 189.385 27.7161 190.329 26.8857C191.273 26.0482 192.448 25.6294 193.853 25.6294C195.748 25.6294 197.228 26.5521 198.293 28.3975Z"
            fill="white" />
        <path d="M204.872 25.9488V42.3867H202.391V25.9488H204.872Z" fill="white" />
        <path
            d="M209.503 42.3867V25.9488H211.973C213.073 25.9488 213.95 26.034 214.603 26.2043C215.263 26.3747 215.82 26.6621 216.274 27.0667C216.735 27.4855 217.101 28.0071 217.371 28.6317C217.647 29.2634 217.786 29.9022 217.786 30.548C217.786 31.7262 217.335 32.7234 216.434 33.5396C217.307 33.8377 217.995 34.3594 218.499 35.1046C219.01 35.8428 219.266 36.7016 219.266 37.6811C219.266 38.9657 218.811 40.0516 217.903 40.9388C217.356 41.4853 216.743 41.865 216.061 42.078C215.316 42.2838 214.383 42.3867 213.261 42.3867H209.503ZM211.984 33.0073H212.761C213.684 33.0073 214.358 32.805 214.784 32.4005C215.217 31.9888 215.433 31.3855 215.433 30.5906C215.433 29.817 215.213 29.2314 214.773 28.834C214.333 28.4294 213.694 28.2271 212.857 28.2271H211.984V33.0073ZM211.984 40.0552H213.517C214.638 40.0552 215.461 39.8352 215.987 39.3951C216.54 38.9196 216.817 38.3163 216.817 37.5852C216.817 36.8755 216.551 36.2793 216.019 35.7967C215.5 35.3211 214.574 35.0834 213.24 35.0834H211.984V40.0552Z"
            fill="white" />
        <path d="M225.568 25.9488V40.0552H230.402V42.3867H223.088V25.9488H225.568Z" fill="white" />
        <path
            d="M242.507 28.2804H235.917V32.2301H242.315V34.5617H235.917V40.0552H242.507V42.3867H233.436V25.9488H242.507V28.2804Z"
            fill="white" />
    </g>
    <defs>
        <filter id="filter0_f_1200_562" x="0" y="2" width="354" height="61.0139" filterUnits="userSpaceOnUse"
            color-interpolation-filters="sRGB">
            <feFlood flood-opacity="0" result="BackgroundImageFix" />
            <feBlend mode="normal" in="SourceGraphic" in2="BackgroundImageFix" result="shape" />
            <feGaussianBlur stdDeviation="3.5" result="effect1_foregroundBlur_1200_562" />
        </filter>
        <filter id="filter1_d_1200_562" x="90.2188" y="0.713867" width="176.288" height="66.4287"
            filterUnits="userSpaceOnUse" color-interpolation-filters="sRGB">
            <feFlood flood-opacity="0" result="BackgroundImageFix" />
            <feColorMatrix in="SourceAlpha" type="matrix" values="0 0 0 0 0 0 0 0 0 0 0 0 0 0 0 0 0 0 127 0"
                result="hardAlpha" />
            <feOffset />
            <feGaussianBlur stdDeviation="12" />
            <feComposite in2="hardAlpha" operator="out" />
            <feColorMatrix type="matrix" values="0 0 0 0 1 0 0 0 0 1 0 0 0 0 1 0 0 0 0.5 0" />
            <feBlend mode="normal" in2="BackgroundImageFix" result="effect1_dropShadow_1200_562" />
            <feBlend mode="normal" in="SourceGraphic" in2="effect1_dropShadow_1200_562" result="shape" />
        </filter>
        <linearGradient id="paint0_linear_1200_562" x1="177" y1="103.369" x2="177" y2="-2.58317"
            gradientUnits="userSpaceOnUse">
            <stop stop-color="#EAEAEA" />
            <stop offset="1" stop-color="#D9D9D9" stop-opacity="0" />
        </linearGradient>
        <linearGradient id="paint1_linear_1200_562" x1="177" y1="9" x2="177" y2="56.014" gradientUnits="userSpaceOnUse">
            <stop stop-color="white" />
            <stop offset="1" stop-color="#151515" stop-opacity="0.82" />
        </linearGradient>
        <linearGradient id="paint2_linear_1200_562" x1="177" y1="9" x2="177" y2="56.014" gradientUnits="userSpaceOnUse">
            <stop stop-color="white" />
            <stop offset="1" stop-color="#151515" stop-opacity="0.82" />
        </linearGradient>
    </defs>
</svg>