<svg width="150" height="150" viewBox="0 0 150 150" fill="none" xmlns="http://www.w3.org/2000/svg">
    <g filter="url(#filter0_dd_1176_101)">
        <path
            d="M75 105C91.5685 105 105 91.5685 105 75C105 58.4315 91.5685 45 75 45C58.4315 45 45 58.4315 45 75C45 91.5685 58.4315 105 75 105Z"
            fill="url(#paint0_radial_1176_101)" />
    </g>
    <path fill-rule="evenodd" clip-rule="evenodd"
        d="M75.3069 78.6933V70.058C75.3069 68.7204 73.7799 67.9569 72.7098 68.7595L69.1918 71.398C68.9109 71.6087 68.5691 71.7226 68.2179 71.7226H66.2897C65.3932 71.7226 64.6665 72.4493 64.6665 73.3458V77.4659C64.6665 78.3623 65.3932 79.089 66.2897 79.089H68.2179C68.5691 79.089 68.9109 79.203 69.1918 79.4137L72.2745 81.7257L75.3069 78.6933Z"
        fill="black" />
    <path fill-rule="evenodd" clip-rule="evenodd"
        d="M84.7996 69.2004C83.929 68.2104 82.8133 67.4005 81.4836 66.7357C80.9897 66.4887 80.389 66.6889 80.142 67.1829C79.895 67.6769 80.0952 68.2776 80.5892 68.5245C81.7845 69.1222 82.7036 69.8166 83.3815 70.6185L84.7996 69.2004ZM86.6931 72.9638L84.9265 74.7304C84.9404 74.9491 84.9474 75.1742 84.9474 75.4058C84.9474 77.0943 84.5742 78.4332 83.8774 79.5219C83.1784 80.6141 82.1063 81.5285 80.5892 82.2871C80.0952 82.5341 79.895 83.1347 80.142 83.6287C80.389 84.1227 80.9897 84.3229 81.4836 84.0759C83.2405 83.1975 84.6239 82.0657 85.5619 80.6001C86.5021 79.131 86.9474 77.4006 86.9474 75.4058C86.9474 74.5423 86.864 73.7284 86.6931 72.9638ZM81.1872 72.8128L79.7462 74.2538C79.6614 74.1045 79.5658 73.9777 79.4705 73.8705C79.3261 73.708 79.1817 73.591 79.0772 73.517C79.0255 73.4803 78.9852 73.4554 78.9621 73.4418C78.9517 73.4357 78.9449 73.4319 78.9423 73.4305L78.9427 73.4307C78.9415 73.4301 78.941 73.4297 78.941 73.4298C78.941 73.4298 78.9412 73.4299 78.9414 73.43C78.4554 73.1797 78.2598 72.5842 78.505 72.0939C78.752 71.5999 79.3527 71.3997 79.8466 71.6467L79.4078 72.5244C79.8466 71.6467 79.8471 71.6469 79.8475 71.6471L79.8485 71.6476L79.8505 71.6486L79.8549 71.6508L79.8656 71.6563C79.8678 71.6575 79.8702 71.6587 79.8726 71.66C79.879 71.6634 79.8862 71.6672 79.8941 71.6715C79.9161 71.6834 79.9442 71.6991 79.9775 71.7187C80.0438 71.7578 80.1315 71.8128 80.2332 71.8849C80.4356 72.0283 80.7005 72.2439 80.9653 72.5417C81.0398 72.6255 81.1142 72.7158 81.1872 72.8128ZM78.9414 73.43C78.9415 73.4301 78.9415 73.4301 78.9415 73.4301L78.9423 73.4305C78.942 73.4303 78.9417 73.4302 78.9414 73.43ZM78.9479 73.4333L78.943 73.4308L78.9463 73.4325L78.9479 73.4333ZM78.9514 73.4351L78.949 73.4339L78.9505 73.4347L78.9514 73.4351ZM78.9514 73.4351C78.9518 73.4353 78.9522 73.4355 79.3881 72.5637L78.9522 73.4355L78.9514 73.4351Z"
        fill="black" />
    <line x1="88" y1="65.1213" x2="66.1213" y2="87" stroke="black" stroke-width="3" stroke-linecap="round" />
    <path
        d="M74.7165 76.8908C85.9246 76.8908 95.0106 70.7253 95.0106 63.1198C95.0106 55.5143 85.9246 49.3488 74.7165 49.3488C63.5083 49.3488 54.4224 55.5143 54.4224 63.1198C54.4224 70.7253 63.5083 76.8908 74.7165 76.8908Z"
        fill="url(#paint1_linear_1176_101)" fill-opacity="0.7" />
    <defs>
        <filter id="filter0_dd_1176_101" x="1.4706" y="1.4706" width="147.059" height="147.059"
            filterUnits="userSpaceOnUse" color-interpolation-filters="sRGB">
            <feFlood flood-opacity="0" result="BackgroundImageFix" />
            <feColorMatrix in="SourceAlpha" type="matrix" values="0 0 0 0 0 0 0 0 0 0 0 0 0 0 0 0 0 0 127 0"
                result="hardAlpha" />
            <feOffset />
            <feGaussianBlur stdDeviation="21.7647" />
            <feComposite in2="hardAlpha" operator="out" />
            <feColorMatrix type="matrix" values="0 0 0 0 0.454902 0 0 0 0 0.454902 0 0 0 0 0.454902 0 0 0 0.25 0" />
            <feBlend mode="normal" in2="BackgroundImageFix" result="effect1_dropShadow_1176_101" />
            <feColorMatrix in="SourceAlpha" type="matrix" values="0 0 0 0 0 0 0 0 0 0 0 0 0 0 0 0 0 0 127 0"
                result="hardAlpha" />
            <feOffset dy="-0.588235" />
            <feGaussianBlur stdDeviation="1.76471" />
            <feComposite in2="hardAlpha" operator="out" />
            <feColorMatrix type="matrix" values="0 0 0 0 0 0 0 0 0 0 0 0 0 0 0 0 0 0 0.4 0" />
            <feBlend mode="normal" in2="effect1_dropShadow_1176_101" result="effect2_dropShadow_1176_101" />
            <feBlend mode="normal" in="SourceGraphic" in2="effect2_dropShadow_1176_101" result="shape" />
        </filter>
        <radialGradient id="paint0_radial_1176_101" cx="0" cy="0" r="1" gradientUnits="userSpaceOnUse"
            gradientTransform="translate(62.9412 115) rotate(-72.1039) scale(59.3418)">
            <stop stop-color="#4A4A4A" />
            <stop offset="1" stop-color="white" />
        </radialGradient>
        <linearGradient id="paint1_linear_1176_101" x1="74.7165" y1="49.3487" x2="74.7165" y2="76.8908"
            gradientUnits="userSpaceOnUse">
            <stop stop-color="white" />
            <stop offset="1" stop-color="white" stop-opacity="0" />
        </linearGradient>
    </defs>
</svg>