<svg width="209" height="209" viewBox="0 0 209 209" fill="none" xmlns="http://www.w3.org/2000/svg">
    <g filter="url(#filter0_f_1173_10)">
        <circle cx="104.5" cy="104.5" r="57.5" stroke="url(#paint0_linear_1173_10)" stroke-width="10" />
    </g>
    <g filter="url(#filter1_i_1173_10)">
        <circle cx="104.5" cy="104.5" r="57.5" stroke="url(#paint1_linear_1173_10)" stroke-width="10" />
    </g>
    <g style="mix-blend-mode:darken" opacity="0.1">
        <mask id="mask0_1173_10" style="mask-type:alpha" maskUnits="userSpaceOnUse" x="42" y="42" width="125"
            height="125">
            <path fill-rule="evenodd" clip-rule="evenodd"
                d="M104.5 52C75.5051 52 52 75.5051 52 104.5C52 133.495 75.5051 157 104.5 157C133.495 157 157 133.495 157 104.5C157 75.5051 133.495 52 104.5 52ZM42 104.5C42 69.9822 69.9822 42 104.5 42C139.018 42 167 69.9822 167 104.5C167 139.018 139.018 167 104.5 167C69.9822 167 42 139.018 42 104.5Z"
                fill="url(#paint2_linear_1173_10)" />
        </mask>
        <g mask="url(#mask0_1173_10)">
            <rect x="-1" y="166" width="212" height="1" fill="black" />
            <rect x="-1" y="164" width="212" height="1" fill="black" />
            <rect x="-1" y="162" width="212" height="1" fill="black" />
            <rect x="-1" y="160" width="212" height="1" fill="black" />
            <rect x="-1" y="158" width="212" height="1" fill="black" />
            <rect x="-1" y="156" width="212" height="1" fill="black" />
            <rect x="-1" y="154" width="212" height="1" fill="black" />
            <rect x="-1" y="152" width="212" height="1" fill="black" />
            <rect x="-1" y="150" width="212" height="1" fill="black" />
            <rect x="-1" y="148" width="212" height="1" fill="black" />
            <rect x="-1" y="146" width="212" height="1" fill="black" />
            <rect x="-1" y="144" width="212" height="1" fill="black" />
            <rect x="-1" y="142" width="212" height="1" fill="black" />
            <rect x="-1" y="140" width="212" height="1" fill="black" />
            <rect x="-1" y="138" width="212" height="1" fill="black" />
            <rect x="-1" y="136" width="212" height="1" fill="black" />
            <rect x="-1" y="134" width="212" height="1" fill="black" />
            <rect x="-1" y="132" width="212" height="1" fill="black" />
            <rect x="-1" y="130" width="212" height="1" fill="black" />
            <rect x="-1" y="128" width="212" height="1" fill="black" />
            <rect x="-1" y="126" width="212" height="1" fill="black" />
            <rect x="-1" y="124" width="212" height="1" fill="black" />
            <rect x="-1" y="122" width="212" height="1" fill="black" />
            <rect x="-1" y="120" width="212" height="1" fill="black" />
            <rect x="-1" y="118" width="212" height="1" fill="black" />
            <rect x="-1" y="116" width="212" height="1" fill="black" />
            <rect x="-1" y="114" width="212" height="1" fill="black" />
            <rect x="-1" y="112" width="212" height="1" fill="black" />
            <rect x="-1" y="110" width="212" height="1" fill="black" />
            <rect x="-1" y="108" width="212" height="1" fill="black" />
            <rect x="-1" y="106" width="212" height="1" fill="black" />
            <rect x="-1" y="104" width="212" height="1" fill="black" />
            <rect x="-1" y="102" width="212" height="1" fill="black" />
            <rect x="-1" y="100" width="212" height="1" fill="black" />
            <rect x="-1" y="98" width="212" height="1" fill="black" />
            <rect x="-1" y="96" width="212" height="1" fill="black" />
            <rect x="-1" y="94" width="212" height="1" fill="black" />
            <rect x="-1" y="92" width="212" height="1" fill="black" />
            <rect x="-1" y="90" width="212" height="1" fill="black" />
            <rect x="-1" y="88" width="212" height="1" fill="black" />
            <rect x="-1" y="86" width="212" height="1" fill="black" />
            <rect x="-1" y="84" width="212" height="1" fill="black" />
            <rect x="-1" y="82" width="212" height="1" fill="black" />
            <rect x="-1" y="80" width="212" height="1" fill="black" />
            <rect x="-1" y="78" width="212" height="1" fill="black" />
            <rect x="-1" y="76" width="212" height="1" fill="black" />
            <rect x="-1" y="74" width="212" height="1" fill="black" />
            <rect x="-1" y="72" width="212" height="1" fill="black" />
            <rect x="-1" y="70" width="212" height="1" fill="black" />
            <rect x="-1" y="68" width="212" height="1" fill="black" />
            <rect x="-1" y="66" width="212" height="1" fill="black" />
            <rect x="-1" y="64" width="212" height="1" fill="black" />
            <rect x="-1" y="62" width="212" height="1" fill="black" />
            <rect x="-1" y="60" width="212" height="1" fill="black" />
            <rect x="-1" y="58" width="212" height="1" fill="black" />
            <rect x="-1" y="56" width="212" height="1" fill="black" />
            <rect x="-1" y="54" width="212" height="1" fill="black" />
            <rect x="-1" y="52" width="212" height="1" fill="black" />
            <rect x="-1" y="50" width="212" height="1" fill="black" />
            <rect x="-1" y="48" width="212" height="1" fill="black" />
            <rect x="-1" y="46" width="212" height="1" fill="black" />
            <rect x="-1" y="44" width="212" height="1" fill="black" />
            <rect x="-1" y="42" width="212" height="1" fill="black" />
        </g>
    </g>
    <g filter="url(#filter2_f_1173_10)">
        <circle cx="104.5" cy="104.5" r="63.5" stroke="url(#paint3_linear_1173_10)" stroke-width="2" />
    </g>
    <g filter="url(#filter3_f_1173_10)">
        <circle cx="104.5" cy="104.5" r="52.5" stroke="url(#paint4_linear_1173_10)" stroke-width="2" />
    </g>
    <defs>
        <filter id="filter0_f_1173_10" x="0" y="0" width="209" height="209" filterUnits="userSpaceOnUse"
            color-interpolation-filters="sRGB">
            <feFlood flood-opacity="0" result="BackgroundImageFix" />
            <feBlend mode="normal" in="SourceGraphic" in2="BackgroundImageFix" result="shape" />
            <feGaussianBlur stdDeviation="21" result="effect1_foregroundBlur_1173_10" />
        </filter>
        <filter id="filter1_i_1173_10" x="42" y="42" width="125" height="127" filterUnits="userSpaceOnUse"
            color-interpolation-filters="sRGB">
            <feFlood flood-opacity="0" result="BackgroundImageFix" />
            <feBlend mode="normal" in="SourceGraphic" in2="BackgroundImageFix" result="shape" />
            <feColorMatrix in="SourceAlpha" type="matrix" values="0 0 0 0 0 0 0 0 0 0 0 0 0 0 0 0 0 0 127 0"
                result="hardAlpha" />
            <feOffset dy="4" />
            <feGaussianBlur stdDeviation="1" />
            <feComposite in2="hardAlpha" operator="arithmetic" k2="-1" k3="1" />
            <feColorMatrix type="matrix" values="0 0 0 0 0 0 0 0 0 0 0 0 0 0 0 0 0 0 0.25 0" />
            <feBlend mode="normal" in2="shape" result="effect1_innerShadow_1173_10" />
        </filter>
        <filter id="filter2_f_1173_10" x="39" y="39" width="131" height="131" filterUnits="userSpaceOnUse"
            color-interpolation-filters="sRGB">
            <feFlood flood-opacity="0" result="BackgroundImageFix" />
            <feBlend mode="normal" in="SourceGraphic" in2="BackgroundImageFix" result="shape" />
            <feGaussianBlur stdDeviation="0.5" result="effect1_foregroundBlur_1173_10" />
        </filter>
        <filter id="filter3_f_1173_10" x="50" y="50" width="109" height="109" filterUnits="userSpaceOnUse"
            color-interpolation-filters="sRGB">
            <feFlood flood-opacity="0" result="BackgroundImageFix" />
            <feBlend mode="normal" in="SourceGraphic" in2="BackgroundImageFix" result="shape" />
            <feGaussianBlur stdDeviation="0.5" result="effect1_foregroundBlur_1173_10" />
        </filter>
        <linearGradient id="paint0_linear_1173_10" x1="105" y1="29.5" x2="105" y2="229" gradientUnits="userSpaceOnUse">
            <stop stop-color="#FC6510" />
            <stop offset="1" stop-color="#AE16C7" />
        </linearGradient>
        <linearGradient id="paint1_linear_1173_10" x1="105" y1="29.5" x2="105" y2="229" gradientUnits="userSpaceOnUse">
            <stop stop-color="#FC6510" />
            <stop offset="1" stop-color="#AE16C7" />
        </linearGradient>
        <linearGradient id="paint2_linear_1173_10" x1="105" y1="29.5" x2="105" y2="229" gradientUnits="userSpaceOnUse">
            <stop stop-color="#FC6510" />
            <stop offset="1" stop-color="#AE16C7" />
        </linearGradient>
        <linearGradient id="paint3_linear_1173_10" x1="104.5" y1="41" x2="104.5" y2="168"
            gradientUnits="userSpaceOnUse">
            <stop stop-color="white" />
            <stop offset="1" stop-color="#EA4DDA" />
        </linearGradient>
        <linearGradient id="paint4_linear_1173_10" x1="104.5" y1="52" x2="104.5" y2="157"
            gradientUnits="userSpaceOnUse">
            <stop stop-color="white" />
            <stop offset="1" stop-color="#EA4DDA" />
        </linearGradient>
    </defs>
</svg>