<svg width="157" height="53" viewBox="0 0 157 53" fill="none" xmlns="http://www.w3.org/2000/svg">
    <path
        d="M4.0405 24.8054V34.6023H0.399902V10.4773H4.5249C6.5458 10.4773 8.0718 10.6179 9.1031 10.8992C10.1447 11.1804 11.0614 11.7117 11.8531 12.4929C13.2385 13.8471 13.9312 15.5554 13.9312 17.6179C13.9312 19.8263 13.1916 21.5763 11.7124 22.8679C10.2333 24.1596 8.2385 24.8054 5.7281 24.8054H4.0405ZM4.0405 21.4304H5.3999C8.7437 21.4304 10.4155 20.144 10.4155 17.5711C10.4155 15.0815 8.6916 13.8367 5.2437 13.8367H4.0405V21.4304Z"
        fill="white" />
    <path
        d="M4.0405 24.8054V34.6023H0.399902V10.4773H4.5249C6.5458 10.4773 8.0718 10.6179 9.1031 10.8992C10.1447 11.1804 11.0614 11.7117 11.8531 12.4929C13.2385 13.8471 13.9312 15.5554 13.9312 17.6179C13.9312 19.8263 13.1916 21.5763 11.7124 22.8679C10.2333 24.1596 8.2385 24.8054 5.7281 24.8054H4.0405ZM4.0405 21.4304H5.3999C8.7437 21.4304 10.4155 20.144 10.4155 17.5711C10.4155 15.0815 8.6916 13.8367 5.2437 13.8367H4.0405V21.4304Z"
        fill="url(#paint0_linear_1250_29)" fill-opacity="0.8" />
    <path d="M22.3218 10.4773V31.1804H29.4155V34.6023H18.6812V10.4773H22.3218Z" fill="white" />
    <path d="M22.3218 10.4773V31.1804H29.4155V34.6023H18.6812V10.4773H22.3218Z" fill="url(#paint1_linear_1250_29)"
        fill-opacity="0.8" />
    <path
        d="M49.3843 28.7429H39.0562L36.3687 34.6023H32.4468L44.3843 8.96167L55.8999 34.6023H51.9155L49.3843 28.7429ZM47.8999 25.3211L44.3218 17.1179L40.5718 25.3211H47.8999Z"
        fill="white" />
    <path
        d="M49.3843 28.7429H39.0562L36.3687 34.6023H32.4468L44.3843 8.96167L55.8999 34.6023H51.9155L49.3843 28.7429ZM47.8999 25.3211L44.3218 17.1179L40.5718 25.3211H47.8999Z"
        fill="url(#paint2_linear_1250_29)" fill-opacity="0.8" />
    <path
        d="M62.6812 24.1804L54.8062 10.4773H58.9937L64.5093 20.1179L70.0405 10.4773H74.2281L66.3218 24.1804V34.6023H62.6812V24.1804Z"
        fill="white" />
    <path
        d="M62.6812 24.1804L54.8062 10.4773H58.9937L64.5093 20.1179L70.0405 10.4773H74.2281L66.3218 24.1804V34.6023H62.6812V24.1804Z"
        fill="url(#paint3_linear_1250_29)" fill-opacity="0.8" />
    <path
        d="M91.3373 13.8992H81.6655V19.6961H91.0563V23.1179H81.6655V31.1804H91.3373V34.6023H78.0249V10.4773H91.3373V13.8992Z"
        fill="white" />
    <path
        d="M91.3373 13.8992H81.6655V19.6961H91.0563V23.1179H81.6655V31.1804H91.3373V34.6023H78.0249V10.4773H91.3373V13.8992Z"
        fill="url(#paint4_linear_1250_29)" fill-opacity="0.8" />
    <path
        d="M105.29 24.3211L112.759 34.6023H108.306L101.415 24.7273H100.759V34.6023H97.1182V10.4773H101.384C104.571 10.4773 106.874 11.0763 108.29 12.2742C109.853 13.6075 110.634 15.3679 110.634 17.5554C110.634 19.2638 110.144 20.7325 109.165 21.9617C108.186 23.1908 106.894 23.9773 105.29 24.3211ZM100.759 21.5554H101.915C105.363 21.5554 107.087 20.2377 107.087 17.6023C107.087 15.1335 105.41 13.8992 102.056 13.8992H100.759V21.5554Z"
        fill="white" />
    <path
        d="M105.29 24.3211L112.759 34.6023H108.306L101.415 24.7273H100.759V34.6023H97.1182V10.4773H101.384C104.571 10.4773 106.874 11.0763 108.29 12.2742C109.853 13.6075 110.634 15.3679 110.634 17.5554C110.634 19.2638 110.144 20.7325 109.165 21.9617C108.186 23.1908 106.894 23.9773 105.29 24.3211ZM100.759 21.5554H101.915C105.363 21.5554 107.087 20.2377 107.087 17.6023C107.087 15.1335 105.41 13.8992 102.056 13.8992H100.759V21.5554Z"
        fill="url(#paint5_linear_1250_29)" fill-opacity="0.8" />
    <path fill-rule="evenodd" clip-rule="evenodd"
        d="M4.4406 35.0024H0V10.0774H4.525C6.5555 10.0774 8.1242 10.2178 9.2079 10.5132C10.3178 10.813 11.2945 11.38 12.1335 12.2077C13.6007 13.6422 14.3312 15.456 14.3312 17.618C14.3312 19.9258 13.5532 21.7917 11.9756 23.1693C10.4051 24.5407 8.3076 25.2055 5.7281 25.2055H4.4406V35.0024ZM4.0406 24.8055H5.7281C8.2385 24.8055 10.2333 24.1597 11.7125 22.868C13.1917 21.5764 13.9313 19.8264 13.9313 17.618C13.9313 15.5555 13.2385 13.8472 11.8531 12.493C11.0615 11.7118 10.1448 11.1805 9.1031 10.8993C8.0719 10.618 6.5458 10.4774 4.525 10.4774H0.400001V34.6024H4.0406V24.8055ZM4.4406 21.0305H5.4C7.0318 21.0305 8.1822 20.7147 8.9178 20.1487C9.6335 19.5979 10.0156 18.7638 10.0156 17.5711C10.0156 16.4298 9.6276 15.6283 8.8885 15.0947C8.1253 14.5436 6.9315 14.2368 5.2438 14.2368H4.4406V21.0305ZM5.4 21.4305C8.7438 21.4305 10.4156 20.1441 10.4156 17.5711C10.4156 15.0816 8.6917 13.8368 5.2438 13.8368H4.0406V21.4305H5.4ZM22.7219 10.0774V30.7805H29.8156V35.0024H18.2813V10.0774H22.7219ZM22.3219 31.1805V10.4774H18.6813V34.6024H29.4156V31.1805H22.3219ZM51.9156 34.6024L49.3844 28.743H39.0563L36.3688 34.6024H32.4469L44.3844 8.9618L55.9 34.6024H51.9156ZM39.3129 29.143L36.6254 35.0024H31.8194L44.3909 8L56.5181 35.0024H51.6527L49.1214 29.143H39.3129ZM44.3219 17.118L40.5719 25.3211H47.9L44.3219 17.118ZM44.3133 18.0989L41.1945 24.9211H47.2891L44.3133 18.0989ZM66.3219 24.1805V34.6024H62.6813V24.1805L54.8063 10.4774H58.9938L64.5094 20.118L70.0406 10.4774H74.2281L66.3219 24.1805ZM64.5099 19.3134L59.2257 10.0774H54.115L62.2813 24.2873V35.0024H66.7219V24.2876L74.9207 10.0774H69.809L64.5099 19.3134ZM91.7374 14.2993H82.0656V19.2961H91.4564V23.518H82.0656V30.7805H91.7374V35.0024H77.625V10.0774H91.7374V14.2993ZM81.6656 31.1805V23.118H91.0564V19.6961H81.6656V13.8993H91.3374V10.4774H78.025V34.6024H91.3374V31.1805H81.6656ZM108.306 34.6024L101.415 24.7274H100.759V34.6024H97.1184V10.4774H101.384C104.571 10.4774 106.874 11.0764 108.29 12.2743C109.853 13.6076 110.634 15.368 110.634 17.5555C110.634 19.2639 110.144 20.7326 109.165 21.9618C108.273 23.0817 107.121 23.8341 105.71 24.219C105.573 24.2566 105.433 24.2906 105.29 24.3211L112.759 34.6024H108.306ZM105.961 24.5638C107.385 24.146 108.562 23.3615 109.478 22.211C110.519 20.9047 111.034 19.346 111.034 17.5555C111.034 15.2596 110.208 13.3848 108.55 11.97L108.549 11.9688C107.023 10.6792 104.604 10.0774 101.384 10.0774H96.7184V35.0024H101.159V25.1274H101.207L108.097 35.0024H113.544L105.961 24.5638ZM101.159 21.1555H101.915C103.6 21.1555 104.789 20.8317 105.551 20.2494C106.293 19.6827 106.687 18.8253 106.687 17.6024C106.687 16.4685 106.309 15.6745 105.592 15.1472C104.853 14.6031 103.696 14.2993 102.056 14.2993H101.159V21.1555ZM101.915 21.5555C105.363 21.5555 107.087 20.2378 107.087 17.6024C107.087 15.1336 105.41 13.8993 102.056 13.8993H100.759V21.5555H101.915Z"
        fill="white" />
    <g filter="url(#filter0_d_1250_29)">
        <path
            d="M133.561 31.1866H142.587V34.6242H126.31L134.723 24.4371C135.55 23.422 136.24 22.543 136.795 21.8C137.36 21.0571 137.789 20.4344 138.082 19.9321C138.679 18.9485 138.977 18.0642 138.977 17.2794C138.977 16.1492 138.579 15.2022 137.784 14.4383C136.989 13.6744 136.005 13.2925 134.833 13.2925C132.384 13.2925 130.982 14.7418 130.626 17.6404H126.985C127.571 12.5338 130.15 9.98047 134.723 9.98047C136.931 9.98047 138.783 10.6816 140.28 12.0838C141.786 13.486 142.54 15.2231 142.54 17.2951C142.54 18.6136 142.189 19.906 141.488 21.1722C141.132 21.8314 140.609 22.6163 139.919 23.5267C139.238 24.4266 138.375 25.494 137.329 26.7288L133.561 31.1866Z"
            fill="white" />
        <path
            d="M133.561 31.1866H142.587V34.6242H126.31L134.723 24.4371C135.55 23.422 136.24 22.543 136.795 21.8C137.36 21.0571 137.789 20.4344 138.082 19.9321C138.679 18.9485 138.977 18.0642 138.977 17.2794C138.977 16.1492 138.579 15.2022 137.784 14.4383C136.989 13.6744 136.005 13.2925 134.833 13.2925C132.384 13.2925 130.982 14.7418 130.626 17.6404H126.985C127.571 12.5338 130.15 9.98047 134.723 9.98047C136.931 9.98047 138.783 10.6816 140.28 12.0838C141.786 13.486 142.54 15.2231 142.54 17.2951C142.54 18.6136 142.189 19.906 141.488 21.1722C141.132 21.8314 140.609 22.6163 139.919 23.5267C139.238 24.4266 138.375 25.494 137.329 26.7288L133.561 31.1866Z"
            fill="url(#paint6_linear_1250_29)" fill-opacity="0.8" />
    </g>
    <g filter="url(#filter1_d_1250_29)">
        <path fill-rule="evenodd" clip-rule="evenodd"
            d="M127.032 17.2622C127.701 12.4077 130.264 9.98049 134.723 9.98049C136.931 9.98049 138.783 10.6816 140.28 12.0838C141.787 13.4861 142.54 15.2232 142.54 17.2951C142.54 18.6136 142.189 19.906 141.488 21.1722C141.133 21.8314 140.609 22.6163 139.919 23.5267C139.238 24.4266 138.375 25.494 137.329 26.7288L133.562 31.1866H142.587V34.6242H126.31L134.723 24.4371C135.55 23.422 136.24 22.543 136.795 21.8001C137.36 21.0571 137.789 20.4344 138.082 19.9322C138.679 18.9485 138.977 18.0643 138.977 17.2794C138.977 16.1493 138.579 15.2022 137.784 14.4383C136.989 13.6744 136.005 13.2925 134.833 13.2925C132.384 13.2925 130.982 14.7418 130.626 17.6404H126.985C126.999 17.5128 127.015 17.3867 127.032 17.2622ZM134.43 24.1983L125.507 35.0024H142.965V30.8084H134.376L137.617 26.9733C138.666 25.7354 139.534 24.6624 140.22 23.7551C140.916 22.8372 141.452 22.036 141.82 21.3536C142.549 20.0375 142.918 18.6832 142.918 17.2951C142.918 15.1191 142.122 13.2817 140.538 11.8074C138.966 10.3345 137.019 9.60229 134.723 9.60229C132.364 9.60229 130.471 10.2629 129.093 11.6267C127.721 12.9847 126.908 14.9934 126.609 17.5973L126.561 18.0186H130.961L131.002 17.6865C131.174 16.2836 131.593 15.2867 132.217 14.6424C132.832 14.0068 133.688 13.6707 134.833 13.6707C135.914 13.6707 136.802 14.0194 137.522 14.7111C138.241 15.4017 138.599 16.2493 138.599 17.2794C138.599 17.9701 138.335 18.7857 137.759 19.7361L137.755 19.7416C137.473 20.2251 137.055 20.834 136.494 21.5711L136.492 21.5738C135.942 22.3109 135.255 23.1852 134.431 24.1972C134.43 24.1976 134.43 24.1979 134.43 24.1983Z"
            fill="white" />
    </g>
    <defs>
        <filter id="filter0_d_1250_29" x="113.073" y="0.525558" width="42.7511" height="51.1175"
            filterUnits="userSpaceOnUse" color-interpolation-filters="sRGB">
            <feFlood flood-opacity="0" result="BackgroundImageFix" />
            <feColorMatrix in="SourceAlpha" type="matrix" values="0 0 0 0 0 0 0 0 0 0 0 0 0 0 0 0 0 0 127 0"
                result="hardAlpha" />
            <feOffset dy="3.78196" />
            <feGaussianBlur stdDeviation="6.61844" />
            <feComposite in2="hardAlpha" operator="out" />
            <feColorMatrix type="matrix" values="0 0 0 0 0 0 0 0 0 0 0 0 0 0 0 0 0 0 0.25 0" />
            <feBlend mode="normal" in2="BackgroundImageFix" result="effect1_dropShadow_1250_29" />
            <feBlend mode="normal" in="SourceGraphic" in2="effect1_dropShadow_1250_29" result="shape" />
        </filter>
        <filter id="filter1_d_1250_29" x="112.27" y="0.147384" width="43.9322" height="51.8739"
            filterUnits="userSpaceOnUse" color-interpolation-filters="sRGB">
            <feFlood flood-opacity="0" result="BackgroundImageFix" />
            <feColorMatrix in="SourceAlpha" type="matrix" values="0 0 0 0 0 0 0 0 0 0 0 0 0 0 0 0 0 0 127 0"
                result="hardAlpha" />
            <feOffset dy="3.78196" />
            <feGaussianBlur stdDeviation="6.61844" />
            <feComposite in2="hardAlpha" operator="out" />
            <feColorMatrix type="matrix" values="0 0 0 0 0 0 0 0 0 0 0 0 0 0 0 0 0 0 0.25 0" />
            <feBlend mode="normal" in2="BackgroundImageFix" result="effect1_dropShadow_1250_29" />
            <feBlend mode="normal" in="SourceGraphic" in2="effect1_dropShadow_1250_29" result="shape" />
        </filter>
        <linearGradient id="paint0_linear_1250_29" x1="71.5093" y1="4.60229" x2="71.5093" y2="22.6023"
            gradientUnits="userSpaceOnUse">
            <stop stop-color="white" />
            <stop offset="1" stop-color="white" stop-opacity="0" />
        </linearGradient>
        <linearGradient id="paint1_linear_1250_29" x1="71.5092" y1="4.60229" x2="71.5092" y2="22.6023"
            gradientUnits="userSpaceOnUse">
            <stop stop-color="white" />
            <stop offset="1" stop-color="white" stop-opacity="0" />
        </linearGradient>
        <linearGradient id="paint2_linear_1250_29" x1="71.5093" y1="4.60227" x2="71.5093" y2="22.6023"
            gradientUnits="userSpaceOnUse">
            <stop stop-color="white" />
            <stop offset="1" stop-color="white" stop-opacity="0" />
        </linearGradient>
        <linearGradient id="paint3_linear_1250_29" x1="71.5093" y1="4.60229" x2="71.5093" y2="22.6023"
            gradientUnits="userSpaceOnUse">
            <stop stop-color="white" />
            <stop offset="1" stop-color="white" stop-opacity="0" />
        </linearGradient>
        <linearGradient id="paint4_linear_1250_29" x1="71.5093" y1="4.60229" x2="71.5093" y2="22.6023"
            gradientUnits="userSpaceOnUse">
            <stop stop-color="white" />
            <stop offset="1" stop-color="white" stop-opacity="0" />
        </linearGradient>
        <linearGradient id="paint5_linear_1250_29" x1="71.5092" y1="4.60229" x2="71.5092" y2="22.6023"
            gradientUnits="userSpaceOnUse">
            <stop stop-color="white" />
            <stop offset="1" stop-color="white" stop-opacity="0" />
        </linearGradient>
        <linearGradient id="paint6_linear_1250_29" x1="135.437" y1="5.31395" x2="135.437" y2="22.3328"
            gradientUnits="userSpaceOnUse">
            <stop stop-color="white" />
            <stop offset="1" stop-color="white" stop-opacity="0" />
        </linearGradient>
    </defs>
</svg>