<svg width="167" height="56" viewBox="0 0 167 56" fill="none" xmlns="http://www.w3.org/2000/svg">
    <g filter="url(#filter0_d_906_14)">
        <path
            d="M18.5312 27.2031V37H14.8906V12.875H19.0156C21.0365 12.875 22.5625 13.0156 23.5938 13.2969C24.6354 13.5781 25.5521 14.1094 26.3438 14.8906C27.7292 16.2448 28.4219 17.9531 28.4219 20.0156C28.4219 22.224 27.6823 23.974 26.2031 25.2656C24.724 26.5573 22.7292 27.2031 20.2188 27.2031H18.5312ZM18.5312 23.8281H19.8906C23.2344 23.8281 24.9062 22.5417 24.9062 19.9688C24.9062 17.4792 23.1823 16.2344 19.7344 16.2344H18.5312V23.8281Z"
            fill="white" />
        <path
            d="M18.5312 27.2031V37H14.8906V12.875H19.0156C21.0365 12.875 22.5625 13.0156 23.5938 13.2969C24.6354 13.5781 25.5521 14.1094 26.3438 14.8906C27.7292 16.2448 28.4219 17.9531 28.4219 20.0156C28.4219 22.224 27.6823 23.974 26.2031 25.2656C24.724 26.5573 22.7292 27.2031 20.2188 27.2031H18.5312ZM18.5312 23.8281H19.8906C23.2344 23.8281 24.9062 22.5417 24.9062 19.9688C24.9062 17.4792 23.1823 16.2344 19.7344 16.2344H18.5312V23.8281Z"
            fill="url(#paint0_linear_906_14)" fill-opacity="0.8" />
        <path d="M36.8125 12.875V33.5781H43.9062V37H33.1719V12.875H36.8125Z" fill="white" />
        <path d="M36.8125 12.875V33.5781H43.9062V37H33.1719V12.875H36.8125Z" fill="url(#paint1_linear_906_14)"
            fill-opacity="0.8" />
        <path
            d="M63.875 31.1406H53.5469L50.8594 37H46.9375L58.875 11.3594L70.3906 37H66.4062L63.875 31.1406ZM62.3906 27.7188L58.8125 19.5156L55.0625 27.7188H62.3906Z"
            fill="white" />
        <path
            d="M63.875 31.1406H53.5469L50.8594 37H46.9375L58.875 11.3594L70.3906 37H66.4062L63.875 31.1406ZM62.3906 27.7188L58.8125 19.5156L55.0625 27.7188H62.3906Z"
            fill="url(#paint2_linear_906_14)" fill-opacity="0.8" />
        <path
            d="M77.1719 26.5781L69.2969 12.875H73.4844L79 22.5156L84.5312 12.875H88.7188L80.8125 26.5781V37H77.1719V26.5781Z"
            fill="white" />
        <path
            d="M77.1719 26.5781L69.2969 12.875H73.4844L79 22.5156L84.5312 12.875H88.7188L80.8125 26.5781V37H77.1719V26.5781Z"
            fill="url(#paint3_linear_906_14)" fill-opacity="0.8" />
        <path
            d="M105.828 16.2969H96.1562V22.0938H105.547V25.5156H96.1562V33.5781H105.828V37H92.5156V12.875H105.828V16.2969Z"
            fill="white" />
        <path
            d="M105.828 16.2969H96.1562V22.0938H105.547V25.5156H96.1562V33.5781H105.828V37H92.5156V12.875H105.828V16.2969Z"
            fill="url(#paint4_linear_906_14)" fill-opacity="0.8" />
        <path
            d="M119.781 26.7188L127.25 37H122.797L115.906 27.125H115.25V37H111.609V12.875H115.875C119.062 12.875 121.365 13.474 122.781 14.6719C124.344 16.0052 125.125 17.7656 125.125 19.9531C125.125 21.6615 124.635 23.1302 123.656 24.3594C122.677 25.5885 121.385 26.375 119.781 26.7188ZM115.25 23.9531H116.406C119.854 23.9531 121.578 22.6354 121.578 20C121.578 17.5312 119.901 16.2969 116.547 16.2969H115.25V23.9531Z"
            fill="white" />
        <path
            d="M119.781 26.7188L127.25 37H122.797L115.906 27.125H115.25V37H111.609V12.875H115.875C119.062 12.875 121.365 13.474 122.781 14.6719C124.344 16.0052 125.125 17.7656 125.125 19.9531C125.125 21.6615 124.635 23.1302 123.656 24.3594C122.677 25.5885 121.385 26.375 119.781 26.7188ZM115.25 23.9531H116.406C119.854 23.9531 121.578 22.6354 121.578 20C121.578 17.5312 119.901 16.2969 116.547 16.2969H115.25V23.9531Z"
            fill="url(#paint5_linear_906_14)" fill-opacity="0.8" />
        <path d="M148.547 16.2812H144.375L146.375 12.875H152.188V37H148.547V16.2812Z" fill="white" />
        <path d="M148.547 16.2812H144.375L146.375 12.875H152.188V37H148.547V16.2812Z" fill="url(#paint6_linear_906_14)"
            fill-opacity="0.8" />
    </g>
    <g filter="url(#filter1_d_906_14)">
        <path fill-rule="evenodd" clip-rule="evenodd"
            d="M18.9312 37.4001H14.4906V12.4751H19.0156C21.0461 12.4751 22.6148 12.6155 23.6985 12.9109C24.8084 13.2107 25.7851 13.7777 26.6241 14.6054C28.0913 16.0399 28.8218 17.8537 28.8218 20.0157C28.8218 22.3235 28.0438 24.1894 26.4662 25.567C24.8957 26.9384 22.7982 27.6032 20.2187 27.6032H18.9312V37.4001ZM18.5312 27.2032H20.2187C22.7291 27.2032 24.7239 26.5574 26.2031 25.2657C27.6823 23.9741 28.4219 22.2241 28.4219 20.0157C28.4219 17.9532 27.7291 16.2449 26.3437 14.8907C25.5521 14.1095 24.6354 13.5782 23.5937 13.297C22.5625 13.0157 21.0364 12.8751 19.0156 12.8751H14.8906V37.0001H18.5312V27.2032ZM18.9312 23.4282H19.8906C21.5224 23.4282 22.6728 23.1124 23.4084 22.5464C24.1241 21.9956 24.5062 21.1615 24.5062 19.9688C24.5062 18.8275 24.1182 18.026 23.3791 17.4924C22.6159 16.9413 21.4221 16.6345 19.7344 16.6345H18.9312V23.4282ZM19.8906 23.8282C23.2344 23.8282 24.9062 22.5418 24.9062 19.9688C24.9062 17.4793 23.1823 16.2345 19.7344 16.2345H18.5312V23.8282H19.8906ZM37.2125 12.4751V33.1782H44.3062V37.4001H32.7719V12.4751H37.2125ZM36.8125 33.5782V12.8751H33.1719V37.0001H43.9062V33.5782H36.8125ZM66.4062 37.0001L63.875 31.1407H53.5469L50.8594 37.0001H46.9375L58.875 11.3595L70.3906 37.0001H66.4062ZM53.8035 31.5407L51.116 37.4001H46.31L58.8815 10.3977L71.0087 37.4001H66.1433L63.612 31.5407H53.8035ZM58.8125 19.5157L55.0625 27.7188H62.3906L58.8125 19.5157ZM58.8039 20.4966L55.6851 27.3188H61.7797L58.8039 20.4966ZM80.8125 26.5782V37.0001H77.1719V26.5782L69.2969 12.8751H73.4844L79 22.5157L84.5312 12.8751H88.7187L80.8125 26.5782ZM79.0005 21.7111L73.7163 12.4751H68.6056L76.7719 26.685V37.4001H81.2125V26.6853L89.4113 12.4751H84.2996L79.0005 21.7111ZM106.228 16.697H96.5562V21.6938H105.947V25.9157H96.5562V33.1782H106.228V37.4001H92.1156V12.4751H106.228V16.697ZM96.1562 33.5782V25.5157H105.547V22.0938H96.1562V16.297H105.828V12.8751H92.5156V37.0001H105.828V33.5782H96.1562ZM122.797 37.0001L115.906 27.1251H115.25V37.0001H111.609V12.8751H115.875C119.062 12.8751 121.365 13.4741 122.781 14.672C124.344 16.0053 125.125 17.7657 125.125 19.9532C125.125 21.6616 124.635 23.1303 123.656 24.3595C122.764 25.4794 121.612 26.2318 120.201 26.6167C120.064 26.6543 119.924 26.6883 119.781 26.7188L127.25 37.0001H122.797ZM120.452 26.9615C121.876 26.5437 123.053 25.7592 123.969 24.6087C125.01 23.3024 125.525 21.7437 125.525 19.9532C125.525 17.6573 124.699 15.7825 123.041 14.3677L123.04 14.3665C121.514 13.0769 119.095 12.4751 115.875 12.4751H111.209V37.4001H115.65V27.5251H115.698L122.588 37.4001H128.035L120.452 26.9615ZM115.65 23.5532H116.406C118.091 23.5532 119.28 23.2294 120.042 22.6471C120.784 22.0804 121.178 21.223 121.178 20.0001C121.178 18.8662 120.8 18.0722 120.083 17.5449C119.344 17.0008 118.187 16.697 116.547 16.697H115.65V23.5532ZM116.406 23.9532C119.854 23.9532 121.578 22.6355 121.578 20.0001C121.578 17.5313 119.901 16.297 116.547 16.297H115.25V23.9532H116.406ZM144.375 16.2813L146.375 12.8751H152.187V37.0001H148.547V16.2813H144.375ZM148.147 16.6813H143.676L146.146 12.4751H152.587V37.4001H148.147V16.6813Z"
            fill="white" />
    </g>
    <defs>
        <filter id="filter0_d_906_14" x="0.890625" y="1.35938" width="165.297" height="53.6406"
            filterUnits="userSpaceOnUse" color-interpolation-filters="sRGB">
            <feFlood flood-opacity="0" result="BackgroundImageFix" />
            <feColorMatrix in="SourceAlpha" type="matrix" values="0 0 0 0 0 0 0 0 0 0 0 0 0 0 0 0 0 0 127 0"
                result="hardAlpha" />
            <feOffset dy="4" />
            <feGaussianBlur stdDeviation="7" />
            <feComposite in2="hardAlpha" operator="out" />
            <feColorMatrix type="matrix" values="0 0 0 0 0 0 0 0 0 0 0 0 0 0 0 0 0 0 0.25 0" />
            <feBlend mode="normal" in2="BackgroundImageFix" result="effect1_dropShadow_906_14" />
            <feBlend mode="normal" in="SourceGraphic" in2="effect1_dropShadow_906_14" result="shape" />
        </filter>
        <filter id="filter1_d_906_14" x="0.490601" y="0.397705" width="166.097" height="55.0024"
            filterUnits="userSpaceOnUse" color-interpolation-filters="sRGB">
            <feFlood flood-opacity="0" result="BackgroundImageFix" />
            <feColorMatrix in="SourceAlpha" type="matrix" values="0 0 0 0 0 0 0 0 0 0 0 0 0 0 0 0 0 0 127 0"
                result="hardAlpha" />
            <feOffset dy="4" />
            <feGaussianBlur stdDeviation="7" />
            <feComposite in2="hardAlpha" operator="out" />
            <feColorMatrix type="matrix" values="0 0 0 0 0 0 0 0 0 0 0 0 0 0 0 0 0 0 0.25 0" />
            <feBlend mode="normal" in2="BackgroundImageFix" result="effect1_dropShadow_906_14" />
            <feBlend mode="normal" in="SourceGraphic" in2="effect1_dropShadow_906_14" result="shape" />
        </filter>
        <linearGradient id="paint0_linear_906_14" x1="86" y1="7" x2="86" y2="25" gradientUnits="userSpaceOnUse">
            <stop stop-color="white" />
            <stop offset="1" stop-color="white" stop-opacity="0" />
        </linearGradient>
        <linearGradient id="paint1_linear_906_14" x1="86" y1="7" x2="86" y2="25" gradientUnits="userSpaceOnUse">
            <stop stop-color="white" />
            <stop offset="1" stop-color="white" stop-opacity="0" />
        </linearGradient>
        <linearGradient id="paint2_linear_906_14" x1="86" y1="7" x2="86" y2="25" gradientUnits="userSpaceOnUse">
            <stop stop-color="white" />
            <stop offset="1" stop-color="white" stop-opacity="0" />
        </linearGradient>
        <linearGradient id="paint3_linear_906_14" x1="86" y1="7" x2="86" y2="25" gradientUnits="userSpaceOnUse">
            <stop stop-color="white" />
            <stop offset="1" stop-color="white" stop-opacity="0" />
        </linearGradient>
        <linearGradient id="paint4_linear_906_14" x1="86" y1="7" x2="86" y2="25" gradientUnits="userSpaceOnUse">
            <stop stop-color="white" />
            <stop offset="1" stop-color="white" stop-opacity="0" />
        </linearGradient>
        <linearGradient id="paint5_linear_906_14" x1="86" y1="7" x2="86" y2="25" gradientUnits="userSpaceOnUse">
            <stop stop-color="white" />
            <stop offset="1" stop-color="white" stop-opacity="0" />
        </linearGradient>
        <linearGradient id="paint6_linear_906_14" x1="86" y1="7" x2="86" y2="25" gradientUnits="userSpaceOnUse">
            <stop stop-color="white" />
            <stop offset="1" stop-color="white" stop-opacity="0" />
        </linearGradient>
    </defs>
</svg>