<svg width="150" height="150" viewBox="0 0 150 150" fill="none" xmlns="http://www.w3.org/2000/svg">
<g filter="url(#filter0_di_1115_430)">
<circle cx="75" cy="75" r="30" fill="url(#paint0_radial_1115_430)"/>
</g>
<path fill-rule="evenodd" clip-rule="evenodd" d="M82.4286 76.0006C82.4292 77.7188 81.823 79.3851 80.7113 80.7208C79.5996 82.0566 78.0499 82.9807 76.3214 83.3387C74.5929 83.6966 72.7904 83.4667 71.2153 82.6874C69.6403 81.9081 68.3882 80.6266 67.6686 79.0573L65.284 79.9989C66.2293 82.1047 67.8915 83.8299 69.9911 84.8844C72.0907 85.9389 74.4998 86.2584 76.8132 85.7892C79.1267 85.3201 81.2034 84.0909 82.6943 82.3082C84.1853 80.5255 84.9994 78.2982 85 76.0006C85.0001 73.9134 84.3285 71.8786 83.0793 70.1812C81.8302 68.4838 80.0661 67.2089 78.0342 66.5352C76.0024 65.8616 73.8046 65.8229 71.749 66.4246C69.6934 67.0263 67.883 68.2382 66.5714 69.8905V66.8338H64V73.5005L65.2857 74.7506H71.2857V72.2505H68.032C68.8808 70.82 70.1914 69.7018 71.7607 69.0694C73.3299 68.4371 75.0699 68.326 76.7107 68.7534C78.3515 69.1808 79.8013 70.1228 80.8352 71.4332C81.869 72.7436 82.4292 74.3491 82.4286 76.0006V76.0006Z" fill="black"/>
<ellipse cx="74.7165" cy="63.1198" rx="20.2941" ry="13.771" fill="url(#paint1_linear_1115_430)" fill-opacity="0.7"/>
<defs>
<filter id="filter0_di_1115_430" x="0.294122" y="0.294122" width="149.412" height="149.412" filterUnits="userSpaceOnUse" color-interpolation-filters="sRGB">
<feFlood flood-opacity="0" result="BackgroundImageFix"/>
<feColorMatrix in="SourceAlpha" type="matrix" values="0 0 0 0 0 0 0 0 0 0 0 0 0 0 0 0 0 0 127 0" result="hardAlpha"/>
<feMorphology radius="1.17647" operator="dilate" in="SourceAlpha" result="effect1_dropShadow_1115_430"/>
<feOffset/>
<feGaussianBlur stdDeviation="21.7647"/>
<feComposite in2="hardAlpha" operator="out"/>
<feColorMatrix type="matrix" values="0 0 0 0 0.454902 0 0 0 0 0.454902 0 0 0 0 0.454902 0 0 0 0.25 0"/>
<feBlend mode="normal" in2="BackgroundImageFix" result="effect1_dropShadow_1115_430"/>
<feBlend mode="normal" in="SourceGraphic" in2="effect1_dropShadow_1115_430" result="shape"/>
<feColorMatrix in="SourceAlpha" type="matrix" values="0 0 0 0 0 0 0 0 0 0 0 0 0 0 0 0 0 0 127 0" result="hardAlpha"/>
<feMorphology radius="2.35294" operator="erode" in="SourceAlpha" result="effect2_innerShadow_1115_430"/>
<feOffset dy="-0.588235"/>
<feGaussianBlur stdDeviation="1.76471"/>
<feComposite in2="hardAlpha" operator="arithmetic" k2="-1" k3="1"/>
<feColorMatrix type="matrix" values="0 0 0 0 0 0 0 0 0 0 0 0 0 0 0 0 0 0 0.4 0"/>
<feBlend mode="normal" in2="shape" result="effect2_innerShadow_1115_430"/>
</filter>
<radialGradient id="paint0_radial_1115_430" cx="0" cy="0" r="1" gradientUnits="userSpaceOnUse" gradientTransform="translate(62.9412 115) rotate(-72.1039) scale(59.3418)">
<stop stop-color="#4A4A4A"/>
<stop offset="1" stop-color="#FFFEFE"/>
<stop offset="1" stop-color="white"/>
</radialGradient>
<linearGradient id="paint1_linear_1115_430" x1="74.7165" y1="49.3487" x2="74.7165" y2="76.8908" gradientUnits="userSpaceOnUse">
<stop stop-color="white"/>
<stop offset="1" stop-color="white" stop-opacity="0"/>
</linearGradient>
</defs>
</svg>
