<svg width="201" height="49" viewBox="0 0 201 49" fill="none" xmlns="http://www.w3.org/2000/svg">
    <g filter="url(#filter0_d_1220_606)">
        <path
            d="M25.3984 14.6016L23.1836 15.9141C22.7695 15.1953 22.375 14.7266 22 14.5078C21.6094 14.2578 21.1055 14.1328 20.4883 14.1328C19.7305 14.1328 19.1016 14.3477 18.6016 14.7773C18.1016 15.1992 17.8516 15.7305 17.8516 16.3711C17.8516 17.2539 18.5078 17.9648 19.8203 18.5039L21.625 19.2422C23.0938 19.8359 24.168 20.5625 24.8477 21.4219C25.5273 22.2734 25.8672 23.3203 25.8672 24.5625C25.8672 26.2266 25.3125 27.6016 24.2031 28.6875C23.0859 29.7812 21.6992 30.3281 20.043 30.3281C18.4727 30.3281 17.1758 29.8633 16.1523 28.9336C15.1445 28.0039 14.5156 26.6953 14.2656 25.0078L17.0312 24.3984C17.1562 25.4609 17.375 26.1953 17.6875 26.6016C18.25 27.3828 19.0703 27.7734 20.1484 27.7734C21 27.7734 21.707 27.4883 22.2695 26.918C22.832 26.3477 23.1133 25.625 23.1133 24.75C23.1133 24.3984 23.0625 24.0781 22.9609 23.7891C22.8672 23.4922 22.7148 23.2227 22.5039 22.9805C22.3008 22.7305 22.0352 22.5 21.707 22.2891C21.3789 22.0703 20.9883 21.8633 20.5352 21.668L18.7891 20.9414C16.3125 19.8945 15.0742 18.3633 15.0742 16.3477C15.0742 14.9883 15.5938 13.8516 16.6328 12.9375C17.6719 12.0156 18.9648 11.5547 20.5117 11.5547C22.5977 11.5547 24.2266 12.5703 25.3984 14.6016Z"
            fill="white" />
        <path
            d="M40.1445 14.4727H32.8906V18.8203H39.9336V21.3867H32.8906V27.4336H40.1445V30H30.1602V11.9062H40.1445V14.4727Z"
            fill="white" />
        <path d="M47.4609 11.9062V27.4336H52.7812V30H44.7305V11.9062H47.4609Z" fill="white" />
        <path
            d="M66.3555 14.4727H59.1016V18.8203H66.1445V21.3867H59.1016V27.4336H66.3555V30H56.3711V11.9062H66.3555V14.4727Z"
            fill="white" />
        <path
            d="M84.3125 12.8789V16.1133C82.7344 14.793 81.1016 14.1328 79.4141 14.1328C77.5547 14.1328 75.9883 14.8008 74.7148 16.1367C73.4336 17.4648 72.793 19.0898 72.793 21.0117C72.793 22.9102 73.4336 24.5117 74.7148 25.8164C75.9961 27.1211 77.5664 27.7734 79.4258 27.7734C80.3867 27.7734 81.2031 27.6172 81.875 27.3047C82.25 27.1484 82.6367 26.9375 83.0352 26.6719C83.4414 26.4062 83.8672 26.0859 84.3125 25.7109V29.0039C82.75 29.8867 81.1094 30.3281 79.3906 30.3281C76.8047 30.3281 74.5977 29.4258 72.7695 27.6211C70.9492 25.8008 70.0391 23.6055 70.0391 21.0352C70.0391 18.7305 70.8008 16.6758 72.3242 14.8711C74.1992 12.6602 76.625 11.5547 79.6016 11.5547C81.2266 11.5547 82.7969 11.9961 84.3125 12.8789Z"
            fill="white" />
        <path d="M93.7617 14.4727V30H91.0312V14.4727H86.8711V11.9062H97.9102V14.4727H93.7617Z" fill="white" />
        <path
            d="M119.984 14.6016L117.77 15.9141C117.355 15.1953 116.961 14.7266 116.586 14.5078C116.195 14.2578 115.691 14.1328 115.074 14.1328C114.316 14.1328 113.688 14.3477 113.188 14.7773C112.688 15.1992 112.438 15.7305 112.438 16.3711C112.438 17.2539 113.094 17.9648 114.406 18.5039L116.211 19.2422C117.68 19.8359 118.754 20.5625 119.434 21.4219C120.113 22.2734 120.453 23.3203 120.453 24.5625C120.453 26.2266 119.898 27.6016 118.789 28.6875C117.672 29.7812 116.285 30.3281 114.629 30.3281C113.059 30.3281 111.762 29.8633 110.738 28.9336C109.73 28.0039 109.102 26.6953 108.852 25.0078L111.617 24.3984C111.742 25.4609 111.961 26.1953 112.273 26.6016C112.836 27.3828 113.656 27.7734 114.734 27.7734C115.586 27.7734 116.293 27.4883 116.855 26.918C117.418 26.3477 117.699 25.625 117.699 24.75C117.699 24.3984 117.648 24.0781 117.547 23.7891C117.453 23.4922 117.301 23.2227 117.09 22.9805C116.887 22.7305 116.621 22.5 116.293 22.2891C115.965 22.0703 115.574 21.8633 115.121 21.668L113.375 20.9414C110.898 19.8945 109.66 18.3633 109.66 16.3477C109.66 14.9883 110.18 13.8516 111.219 12.9375C112.258 12.0156 113.551 11.5547 115.098 11.5547C117.184 11.5547 118.812 12.5703 119.984 14.6016Z"
            fill="white" />
        <path
            d="M127.477 18.9844H135.281V11.9062H138.012V30H135.281V21.5508H127.477V30H124.746V11.9062H127.477V18.9844Z"
            fill="white" />
        <path
            d="M153.977 25.6055H146.23L144.215 30H141.273L150.227 10.7695L158.863 30H155.875L153.977 25.6055ZM152.863 23.0391L150.18 16.8867L147.367 23.0391H152.863Z"
            fill="white" />
        <path
            d="M164.867 22.6523V30H162.137V11.9062H165.23C166.746 11.9062 167.891 12.0117 168.664 12.2227C169.445 12.4336 170.133 12.832 170.727 13.418C171.766 14.4336 172.285 15.7148 172.285 17.2617C172.285 18.918 171.73 20.2305 170.621 21.1992C169.512 22.168 168.016 22.6523 166.133 22.6523H164.867ZM164.867 20.1211H165.887C168.395 20.1211 169.648 19.1562 169.648 17.2266C169.648 15.3594 168.355 14.4258 165.77 14.4258H164.867V20.1211Z"
            fill="white" />
        <path
            d="M186.082 14.4727H178.828V18.8203H185.871V21.3867H178.828V27.4336H186.082V30H176.098V11.9062H186.082V14.4727Z"
            fill="white" />
    </g>
    <defs>
        <filter id="filter0_d_1220_606" x="0.265625" y="0.769531" width="199.816" height="47.5586"
            filterUnits="userSpaceOnUse" color-interpolation-filters="sRGB">
            <feFlood flood-opacity="0" result="BackgroundImageFix" />
            <feColorMatrix in="SourceAlpha" type="matrix" values="0 0 0 0 0 0 0 0 0 0 0 0 0 0 0 0 0 0 127 0"
                result="hardAlpha" />
            <feOffset dy="4" />
            <feGaussianBlur stdDeviation="7" />
            <feComposite in2="hardAlpha" operator="out" />
            <feColorMatrix type="matrix" values="0 0 0 0 0 0 0 0 0 0 0 0 0 0 0 0 0 0 0.25 0" />
            <feBlend mode="normal" in2="BackgroundImageFix" result="effect1_dropShadow_1220_606" />
            <feBlend mode="normal" in="SourceGraphic" in2="effect1_dropShadow_1220_606" result="shape" />
        </filter>
    </defs>
</svg>