<svg width="561" height="54" viewBox="0 0 561 54" fill="none" xmlns="http://www.w3.org/2000/svg">
    <rect x="0.5" y="-0.5" width="560" height="51.36" rx="7.5" transform="matrix(1 0 0 -1 0 51.3601)"
        fill="url(#paint0_linear_1211_582)" stroke="url(#paint1_linear_1211_582)" />
    <g filter="url(#filter0_d_1211_582)">
        <path
            d="M254.398 19.6016L252.184 20.9141C251.77 20.1953 251.375 19.7266 251 19.5078C250.609 19.2578 250.105 19.1328 249.488 19.1328C248.73 19.1328 248.102 19.3477 247.602 19.7773C247.102 20.1992 246.852 20.7305 246.852 21.3711C246.852 22.2539 247.508 22.9648 248.82 23.5039L250.625 24.2422C252.094 24.8359 253.168 25.5625 253.848 26.4219C254.527 27.2734 254.867 28.3203 254.867 29.5625C254.867 31.2266 254.312 32.6016 253.203 33.6875C252.086 34.7812 250.699 35.3281 249.043 35.3281C247.473 35.3281 246.176 34.8633 245.152 33.9336C244.145 33.0039 243.516 31.6953 243.266 30.0078L246.031 29.3984C246.156 30.4609 246.375 31.1953 246.688 31.6016C247.25 32.3828 248.07 32.7734 249.148 32.7734C250 32.7734 250.707 32.4883 251.27 31.918C251.832 31.3477 252.113 30.625 252.113 29.75C252.113 29.3984 252.062 29.0781 251.961 28.7891C251.867 28.4922 251.715 28.2227 251.504 27.9805C251.301 27.7305 251.035 27.5 250.707 27.2891C250.379 27.0703 249.988 26.8633 249.535 26.668L247.789 25.9414C245.312 24.8945 244.074 23.3633 244.074 21.3477C244.074 19.9883 244.594 18.8516 245.633 17.9375C246.672 17.0156 247.965 16.5547 249.512 16.5547C251.598 16.5547 253.227 17.5703 254.398 19.6016Z"
            fill="white" />
        <path d="M264.504 19.4727V35H261.773V19.4727H257.613V16.9062H268.652V19.4727H264.504Z" fill="white" />
        <path
            d="M281.734 30.6055H273.988L271.973 35H269.031L277.984 15.7695L286.621 35H283.633L281.734 30.6055ZM280.621 28.0391L277.938 21.8867L275.125 28.0391H280.621Z"
            fill="white" />
        <path
            d="M296.023 27.2891L301.625 35H298.285L293.117 27.5938H292.625V35H289.895V16.9062H293.094C295.484 16.9062 297.211 17.3555 298.273 18.2539C299.445 19.2539 300.031 20.5742 300.031 22.2148C300.031 23.4961 299.664 24.5977 298.93 25.5195C298.195 26.4414 297.227 27.0312 296.023 27.2891ZM292.625 25.2148H293.492C296.078 25.2148 297.371 24.2266 297.371 22.25C297.371 20.3984 296.113 19.4727 293.598 19.4727H292.625V25.2148Z"
            fill="white" />
        <path d="M310.137 19.4727V35H307.406V19.4727H303.246V16.9062H314.285V19.4727H310.137Z" fill="white" />
    </g>
    <defs>
        <filter id="filter0_d_1211_582" x="229.266" y="5.76953" width="99.0195" height="47.5586"
            filterUnits="userSpaceOnUse" color-interpolation-filters="sRGB">
            <feFlood flood-opacity="0" result="BackgroundImageFix" />
            <feColorMatrix in="SourceAlpha" type="matrix" values="0 0 0 0 0 0 0 0 0 0 0 0 0 0 0 0 0 0 127 0"
                result="hardAlpha" />
            <feOffset dy="4" />
            <feGaussianBlur stdDeviation="7" />
            <feComposite in2="hardAlpha" operator="out" />
            <feColorMatrix type="matrix" values="0 0 0 0 0 0 0 0 0 0 0 0 0 0 0 0 0 0 0.25 0" />
            <feBlend mode="normal" in2="BackgroundImageFix" result="effect1_dropShadow_1211_582" />
            <feBlend mode="normal" in="SourceGraphic" in2="effect1_dropShadow_1211_582" result="shape" />
        </filter>
        <linearGradient id="paint0_linear_1211_582" x1="280.5" y1="-14.212" x2="280.5" y2="60.588"
            gradientUnits="userSpaceOnUse">
            <stop stop-color="white" stop-opacity="0.16" />
            <stop offset="1" stop-color="#EAEAEA" stop-opacity="0.05" />
        </linearGradient>
        <linearGradient id="paint1_linear_1211_582" x1="280.5" y1="0" x2="280.5" y2="52.36"
            gradientUnits="userSpaceOnUse">
            <stop stop-color="#D9D9D9" stop-opacity="0.74" />
            <stop offset="1" stop-color="#D9D9D9" stop-opacity="0.21" />
        </linearGradient>
    </defs>
</svg>