<svg width="1032" height="106" viewBox="0 0 1032 106" fill="none" xmlns="http://www.w3.org/2000/svg">
    <g opacity="0.52" filter="url(#filter0_f_1192_535)">
        <rect x="44" y="44" width="944" height="18" rx="9" fill="url(#paint0_linear_1192_535)" />
    </g>
    <g filter="url(#filter1_f_1192_535)">
        <path fill-rule="evenodd" clip-rule="evenodd"
            d="M320.891 83.0354H308.341V37.3914H296V25.4378H333.197V37.3914H320.891V83.0354ZM310.566 35.1867V80.8308H318.666V35.1867H330.973V27.6425H298.225V35.1867H310.566ZM350.753 25.4378V83.0354H338.204V25.4378H350.753ZM405.541 29.2345V44.7285L401.889 41.7004C397.517 38.0756 393.162 36.3924 388.785 36.3924C383.873 36.3924 379.81 38.1126 376.455 41.5995L376.446 41.6091C373.063 45.0837 371.368 49.3041 371.368 54.4089C371.368 59.4363 373.057 63.5821 376.432 66.9879C379.807 70.3931 383.89 72.0809 388.82 72.0809C391.439 72.0809 393.522 71.6578 395.147 70.9086L395.188 70.8897L395.23 70.8725C396.189 70.4765 397.21 69.9286 398.293 69.213L398.31 69.2021C399.427 68.4783 400.618 67.5923 401.883 66.5363L405.541 63.4838V79.1893L404.411 79.8221C399.457 82.5956 394.215 84 388.716 84C380.464 84 373.354 81.1221 367.511 75.4067L367.501 75.3967C361.684 69.633 358.749 62.6192 358.749 54.4778C358.749 47.1684 361.204 40.6279 366.053 34.9358L366.056 34.932C372.054 27.9237 379.878 24.4044 389.341 24.4044C394.587 24.4044 399.628 25.8214 404.436 28.5966L405.541 29.2345ZM403.317 77.9026C398.681 80.4978 393.814 81.7953 388.716 81.7953C381.044 81.7953 374.497 79.1428 369.074 73.8377C363.674 68.4868 360.974 62.0334 360.974 54.4778C360.974 47.7029 363.234 41.663 367.753 36.3579C373.315 29.8587 380.511 26.6091 389.341 26.6091C394.162 26.6091 398.82 27.9066 403.317 30.5017V40.0095C402.579 39.398 401.837 38.8346 401.092 38.3195C397.105 35.565 393.002 34.1877 388.785 34.1877C383.269 34.1877 378.622 36.1512 374.845 40.0784C371.044 43.9825 369.143 48.7593 369.143 54.4089C369.143 59.9895 371.044 64.6974 374.845 68.5327C378.646 72.3679 383.304 74.2856 388.82 74.2856C391.671 74.2856 394.092 73.8263 396.086 72.9076C397.198 72.4483 398.345 71.8283 399.527 71.0474C400.038 70.7163 400.56 70.3563 401.092 69.9674C401.814 69.4391 402.556 68.8576 403.317 68.2227V77.9026ZM457.027 83.0354H444.477V37.3914H432.136V25.4378H469.333V37.3914H457.027V83.0354ZM446.702 35.1867V80.8308H454.802V35.1867H467.108V27.6425H434.361V35.1867H446.702ZM510.807 80.8308L505.175 67.9126H482.196L476.217 80.8308H467.491L494.051 24.301L519.672 80.8308H510.807ZM483.623 70.1173L477.644 83.0354H464.001L494.087 19L523.11 83.0354H509.344L503.713 70.1173H483.623ZM493.912 42.2831L485.568 60.3684H501.873L493.912 42.2831ZM493.864 47.6891L489.032 58.1637H498.475L493.864 47.6891ZM568.028 29.2345V44.7285L564.376 41.7004C560.004 38.0756 555.649 36.3924 551.272 36.3924C546.36 36.3924 542.297 38.1126 538.942 41.5995L538.933 41.6091C535.55 45.0837 533.855 49.3041 533.855 54.4089C533.855 59.4363 535.544 63.5821 538.919 66.9879C542.294 70.3931 546.377 72.0809 551.307 72.0809C553.926 72.0809 556.009 71.6578 557.634 70.9086L557.675 70.8897L557.717 70.8725C558.676 70.4765 559.697 69.9286 560.78 69.213L560.797 69.2021C561.914 68.4784 563.105 67.5923 564.37 66.5363L568.028 63.4838V79.1893L566.898 79.8221C561.944 82.5956 556.702 84 551.203 84C542.951 84 535.841 81.1221 529.998 75.4067L529.988 75.3967C524.171 69.633 521.236 62.6192 521.236 54.4778C521.236 47.1684 523.691 40.6279 528.54 34.9358L528.543 34.932C534.541 27.9237 542.365 24.4044 551.828 24.4044C557.074 24.4044 562.115 25.8214 566.923 28.5966L568.028 29.2345ZM565.804 77.9026C561.168 80.4978 556.301 81.7953 551.203 81.7953C543.531 81.7953 536.984 79.1428 531.561 73.8377C526.161 68.4868 523.461 62.0334 523.461 54.4778C523.461 47.7029 525.721 41.663 530.24 36.3579C535.802 29.8587 542.998 26.6091 551.828 26.6091C556.649 26.6091 561.307 27.9066 565.804 30.5017V40.0095C565.066 39.398 564.324 38.8346 563.579 38.3195C559.592 35.565 555.489 34.1877 551.272 34.1877C545.756 34.1877 541.109 36.1512 537.332 40.0784C533.531 43.9825 531.631 48.7593 531.631 54.4089C531.631 59.9895 533.531 64.6974 537.332 68.5327C541.133 72.3679 545.791 74.2856 551.307 74.2856C554.158 74.2856 556.579 73.8263 558.573 72.9076C559.685 72.4483 560.832 71.8283 562.014 71.0474C562.525 70.7163 563.047 70.3563 563.579 69.9674C564.301 69.4391 565.043 68.8576 565.804 68.2227V77.9026ZM619.514 83.0354H606.964V37.3914H594.623V25.4378H631.82V37.3914H619.514V83.0354ZM609.189 35.1867V80.8308H617.289V35.1867H629.596V27.6425H596.848V35.1867H609.189ZM682.472 73.7688C676.933 79.1198 670.246 81.7953 662.413 81.7953C655.483 81.7953 649.26 79.4184 643.744 74.6645C637.672 69.4054 634.636 62.5157 634.636 53.9955C634.636 46.5087 637.406 40.0784 642.945 34.7044C648.461 29.3305 655.089 26.6435 662.83 26.6435C670.478 26.6435 677.037 29.3534 682.506 34.7733C687.999 40.1932 690.745 46.7039 690.745 54.3055C690.745 61.9531 687.987 68.4408 682.472 73.7688ZM684.078 33.2127C678.197 27.3858 671.075 24.4388 662.83 24.4388C654.507 24.4388 647.319 27.3519 641.387 33.1302C635.434 38.9066 632.411 45.8994 632.411 53.9955C632.411 63.1042 635.69 70.6163 642.28 76.3245L642.284 76.328C648.181 81.41 654.915 84 662.413 84C670.818 84 678.064 81.1055 684.025 75.3476C689.971 69.6037 692.97 62.5463 692.97 54.3055C692.97 46.1115 689.984 39.0411 684.078 33.2127ZM650.325 67.0106L650.33 67.015C653.906 70.4344 657.939 72.0809 662.517 72.0809C667.571 72.0809 671.747 70.3759 675.187 66.9497C678.635 63.4694 680.351 59.276 680.351 54.2366C680.351 49.1107 678.646 44.9238 675.257 41.5245L675.248 41.5151C671.88 38.0963 667.756 36.3924 662.726 36.3924C657.721 36.3924 653.579 38.0951 650.159 41.5246L650.15 41.534C646.738 44.915 645.031 49.0543 645.031 54.0988C645.031 59.4269 646.811 63.6701 650.325 67.0106ZM676.77 68.4982C672.9 72.3565 668.149 74.2856 662.517 74.2856C657.326 74.2856 652.748 72.3909 648.785 68.6016C644.799 64.8123 642.806 59.978 642.806 54.0988C642.806 48.4952 644.729 43.7873 648.577 39.975C652.424 36.1168 657.14 34.1877 662.726 34.1877C668.334 34.1877 673.039 36.1168 676.84 39.975C680.664 43.8103 682.576 48.5641 682.576 54.2366C682.576 59.8402 680.641 64.5941 676.77 68.4982ZM735 37.3914H713.481V45.7623H734.374V57.7159H713.481V71.0819H735V83.0354H700.931V25.4378H735V37.3914ZM711.256 73.2866V55.5112H732.149V47.967H711.256V35.1867H732.775V27.6425H703.156V80.8308H732.775V73.2866H711.256ZM348.528 27.6425H340.428V80.8308H348.528V27.6425Z"
            fill="white" />
    </g>
    <path d="M320.321 34.6028V79.0605H312.269V34.6028H300V27.2546H332.556V34.6028H320.321Z" fill="white" />
    <path d="M350.008 27.2546V79.0605H341.956V27.2546H350.008Z" fill="white" />
    <path
        d="M404.475 30.0395V39.3002C399.821 35.5199 395.005 33.6297 390.029 33.6297C384.545 33.6297 379.926 35.5422 376.17 39.3673C372.392 43.17 370.502 47.8226 370.502 53.3253C370.502 58.7609 372.392 63.3465 376.17 67.0821C379.949 70.8177 384.58 72.6854 390.063 72.6854C392.897 72.6854 395.305 72.2381 397.286 71.3433C398.392 70.8959 399.533 70.292 400.708 69.5315C401.906 68.7709 403.162 67.8538 404.475 66.7801V76.2085C399.867 78.7362 395.028 80 389.96 80C382.333 80 375.825 77.4164 370.433 72.2493C365.065 67.0373 362.381 60.7517 362.381 53.3925C362.381 46.7937 364.627 40.9107 369.12 35.7436C374.65 29.4132 381.804 26.2481 390.582 26.2481C395.374 26.2481 400.005 27.5119 404.475 30.0395Z"
        fill="white" />
    <path d="M455.658 34.6028V79.0605H447.606V34.6028H435.337V27.2546H467.892V34.6028H455.658Z" fill="white" />
    <path
        d="M505.736 66.4781H482.892L476.947 79.0605H468.273L494.676 24L520.147 79.0605H511.334L505.736 66.4781ZM502.452 59.13L494.538 41.5147L486.244 59.13H502.452Z"
        fill="white" />
    <path
        d="M566.008 30.0395V39.3002C561.354 35.5199 556.539 33.6297 551.562 33.6297C546.079 33.6297 541.459 35.5422 537.704 39.3673C533.925 43.17 532.036 47.8226 532.036 53.3253C532.036 58.7609 533.925 63.3465 537.704 67.0821C541.482 70.8177 546.113 72.6854 551.597 72.6854C554.431 72.6854 556.838 72.2381 558.82 71.3433C559.926 70.8959 561.066 70.292 562.241 69.5315C563.439 68.7709 564.695 67.8538 566.008 66.7801V76.2085C561.4 78.7362 556.562 80 551.493 80C543.867 80 537.358 77.4164 531.967 72.2493C526.598 67.0373 523.914 60.7517 523.914 53.3925C523.914 46.7937 526.161 40.9107 530.653 35.7436C536.183 29.4132 543.337 26.2481 552.115 26.2481C556.908 26.2481 561.539 27.5119 566.008 30.0395Z"
        fill="white" />
    <path d="M617.192 34.6028V79.0605H609.139V34.6028H596.87V27.2546H629.426V34.6028H617.192Z" fill="white" />
    <path
        d="M634.437 52.9227C634.437 45.6305 637.19 39.3673 642.697 34.133C648.18 28.8987 654.77 26.2816 662.465 26.2816C670.068 26.2816 676.589 28.9211 682.026 34.2001C687.487 39.4791 690.217 45.8207 690.217 53.2247C690.217 60.6735 687.475 66.9926 681.992 72.1821C676.485 77.394 669.838 80 662.051 80C655.162 80 648.975 77.6848 643.492 73.0545C637.455 67.9321 634.437 61.2215 634.437 52.9227ZM642.559 53.0234C642.559 58.7498 644.54 63.4584 648.503 67.1492C652.443 70.84 656.993 72.6854 662.154 72.6854C667.753 72.6854 672.476 70.8065 676.324 67.0485C680.172 63.2459 682.095 58.6155 682.095 53.1576C682.095 47.6325 680.195 43.0022 676.393 39.2666C672.614 35.5087 667.937 33.6297 662.362 33.6297C656.809 33.6297 652.12 35.5087 648.296 39.2666C644.471 42.9798 642.559 47.5654 642.559 53.0234Z"
        fill="white" />
    <path d="M732 34.6028H710.607V47.0509H731.378V54.399H710.607V71.7124H732V79.0605H702.555V27.2546H732V34.6028Z"
        fill="white" />
    <defs>
        <filter id="filter0_f_1192_535" x="0" y="0" width="1032" height="106" filterUnits="userSpaceOnUse"
            color-interpolation-filters="sRGB">
            <feFlood flood-opacity="0" result="BackgroundImageFix" />
            <feBlend mode="normal" in="SourceGraphic" in2="BackgroundImageFix" result="shape" />
            <feGaussianBlur stdDeviation="22" result="effect1_foregroundBlur_1192_535" />
        </filter>
        <filter id="filter1_f_1192_535" x="290" y="13" width="451" height="77" filterUnits="userSpaceOnUse"
            color-interpolation-filters="sRGB">
            <feFlood flood-opacity="0" result="BackgroundImageFix" />
            <feBlend mode="normal" in="SourceGraphic" in2="BackgroundImageFix" result="shape" />
            <feGaussianBlur stdDeviation="3" result="effect1_foregroundBlur_1192_535" />
        </filter>
        <linearGradient id="paint0_linear_1192_535" x1="516" y1="44" x2="516" y2="62" gradientUnits="userSpaceOnUse">
            <stop stop-color="white" />
            <stop offset="1" stop-color="white" stop-opacity="0" />
        </linearGradient>
    </defs>
</svg>