<svg width="451" height="77" viewBox="0 0 451 77" fill="none" xmlns="http://www.w3.org/2000/svg">
    <g clip-path="url(#clip0_1384_2)">
        <g filter="url(#filter0_f_1384_2)">
            <path fill-rule="evenodd" clip-rule="evenodd"
                d="M30.891 70.0354H18.341V24.3914H6V12.4378H43.197V24.3914H30.891V70.0354ZM20.566 22.1867V67.8308H28.666V22.1867H40.973V14.6425H8.22501V22.1867H20.566ZM60.753 12.4378V70.0354H48.204V12.4378H60.753ZM115.541 16.2345V31.7285L111.889 28.7004C107.517 25.0756 103.162 23.3924 98.785 23.3924C93.873 23.3924 89.81 25.1126 86.455 28.5995L86.446 28.6091C83.063 32.0837 81.368 36.3041 81.368 41.4089C81.368 46.4363 83.057 50.5821 86.432 53.9879C89.807 57.3931 93.89 59.0809 98.82 59.0809C101.439 59.0809 103.522 58.6578 105.147 57.9086L105.188 57.8897L105.23 57.8725C106.189 57.4765 107.21 56.9286 108.293 56.213L108.31 56.2021C109.427 55.4783 110.618 54.5923 111.883 53.5363L115.541 50.4838V66.1893L114.411 66.8221C109.457 69.5956 104.215 71 98.716 71C90.464 71 83.354 68.1221 77.511 62.4067L77.501 62.3967C71.684 56.633 68.749 49.6192 68.749 41.4778C68.749 34.1684 71.204 27.6279 76.053 21.9358L76.056 21.932C82.054 14.9237 89.878 11.4044 99.341 11.4044C104.587 11.4044 109.628 12.8214 114.436 15.5966L115.541 16.2345ZM113.317 64.9026C108.681 67.4978 103.814 68.7953 98.716 68.7953C91.044 68.7953 84.497 66.1428 79.074 60.8377C73.674 55.4868 70.974 49.0334 70.974 41.4778C70.974 34.7029 73.234 28.663 77.753 23.3579C83.315 16.8587 90.511 13.6091 99.341 13.6091C104.162 13.6091 108.82 14.9066 113.317 17.5017V27.0095C112.579 26.398 111.837 25.8346 111.092 25.3195C107.105 22.565 103.002 21.1877 98.785 21.1877C93.269 21.1877 88.622 23.1512 84.845 27.0784C81.044 30.9825 79.143 35.7593 79.143 41.4089C79.143 46.9895 81.044 51.6974 84.845 55.5327C88.646 59.3679 93.304 61.2856 98.82 61.2856C101.671 61.2856 104.092 60.8263 106.086 59.9076C107.198 59.4483 108.345 58.8283 109.527 58.0474C110.038 57.7163 110.56 57.3563 111.092 56.9674C111.814 56.4391 112.556 55.8576 113.317 55.2227V64.9026ZM167.027 70.0354H154.477V24.3914H142.136V12.4378H179.333V24.3914H167.027V70.0354ZM156.702 22.1867V67.8308H164.802V22.1867H177.108V14.6425H144.361V22.1867H156.702ZM220.807 67.8308L215.175 54.9126H192.196L186.217 67.8308H177.491L204.051 11.301L229.672 67.8308H220.807ZM193.623 57.1173L187.644 70.0354H174.001L204.087 6L233.11 70.0354H219.344L213.713 57.1173H193.623ZM203.912 29.2831L195.568 47.3684H211.873L203.912 29.2831ZM203.864 34.6891L199.032 45.1637H208.475L203.864 34.6891ZM278.028 16.2345V31.7285L274.376 28.7004C270.004 25.0756 265.649 23.3924 261.272 23.3924C256.36 23.3924 252.297 25.1126 248.942 28.5995L248.933 28.6091C245.55 32.0837 243.855 36.3041 243.855 41.4089C243.855 46.4363 245.544 50.5821 248.919 53.9879C252.294 57.3931 256.377 59.0809 261.307 59.0809C263.926 59.0809 266.009 58.6578 267.634 57.9086L267.675 57.8897L267.717 57.8725C268.676 57.4765 269.697 56.9286 270.78 56.213L270.797 56.2021C271.914 55.4784 273.105 54.5923 274.37 53.5363L278.028 50.4838V66.1893L276.898 66.8221C271.944 69.5956 266.702 71 261.203 71C252.951 71 245.841 68.1221 239.998 62.4067L239.988 62.3967C234.171 56.633 231.236 49.6192 231.236 41.4778C231.236 34.1684 233.691 27.6279 238.54 21.9358L238.543 21.932C244.541 14.9237 252.365 11.4044 261.828 11.4044C267.074 11.4044 272.115 12.8214 276.923 15.5966L278.028 16.2345ZM275.804 64.9026C271.168 67.4978 266.301 68.7953 261.203 68.7953C253.531 68.7953 246.984 66.1428 241.561 60.8377C236.161 55.4868 233.461 49.0334 233.461 41.4778C233.461 34.7029 235.721 28.663 240.24 23.3579C245.802 16.8587 252.998 13.6091 261.828 13.6091C266.649 13.6091 271.307 14.9066 275.804 17.5017V27.0095C275.066 26.398 274.324 25.8346 273.579 25.3195C269.592 22.565 265.489 21.1877 261.272 21.1877C255.756 21.1877 251.109 23.1512 247.332 27.0784C243.531 30.9825 241.631 35.7593 241.631 41.4089C241.631 46.9895 243.531 51.6974 247.332 55.5327C251.133 59.3679 255.791 61.2856 261.307 61.2856C264.158 61.2856 266.579 60.8263 268.573 59.9076C269.685 59.4483 270.832 58.8283 272.014 58.0474C272.525 57.7163 273.047 57.3563 273.579 56.9674C274.301 56.4391 275.043 55.8576 275.804 55.2227V64.9026ZM329.514 70.0354H316.964V24.3914H304.623V12.4378H341.82V24.3914H329.514V70.0354ZM319.189 22.1867V67.8308H327.289V22.1867H339.596V14.6425H306.848V22.1867H319.189ZM392.472 60.7688C386.933 66.1198 380.246 68.7953 372.413 68.7953C365.483 68.7953 359.26 66.4184 353.744 61.6645C347.672 56.4054 344.636 49.5157 344.636 40.9955C344.636 33.5087 347.406 27.0784 352.945 21.7044C358.461 16.3305 365.089 13.6435 372.83 13.6435C380.478 13.6435 387.037 16.3534 392.506 21.7733C397.999 27.1932 400.745 33.7039 400.745 41.3055C400.745 48.9531 397.987 55.4408 392.472 60.7688ZM394.078 20.2127C388.197 14.3858 381.075 11.4388 372.83 11.4388C364.507 11.4388 357.319 14.3519 351.387 20.1302C345.434 25.9066 342.411 32.8994 342.411 40.9955C342.411 50.1042 345.69 57.6163 352.28 63.3245L352.284 63.328C358.181 68.41 364.915 71 372.413 71C380.818 71 388.064 68.1055 394.025 62.3476C399.971 56.6037 402.97 49.5463 402.97 41.3055C402.97 33.1115 399.984 26.0411 394.078 20.2127ZM360.325 54.0106L360.33 54.015C363.906 57.4344 367.939 59.0809 372.517 59.0809C377.571 59.0809 381.747 57.3759 385.187 53.9497C388.635 50.4694 390.351 46.276 390.351 41.2366C390.351 36.1107 388.646 31.9238 385.257 28.5245L385.248 28.5151C381.88 25.0963 377.756 23.3924 372.726 23.3924C367.721 23.3924 363.579 25.0951 360.159 28.5246L360.15 28.534C356.738 31.915 355.031 36.0543 355.031 41.0988C355.031 46.4269 356.811 50.6701 360.325 54.0106ZM386.77 55.4982C382.9 59.3565 378.149 61.2856 372.517 61.2856C367.326 61.2856 362.748 59.3909 358.785 55.6016C354.799 51.8123 352.806 46.978 352.806 41.0988C352.806 35.4952 354.729 30.7873 358.577 26.975C362.424 23.1168 367.14 21.1877 372.726 21.1877C378.334 21.1877 383.039 23.1168 386.84 26.975C390.664 30.8103 392.576 35.5641 392.576 41.2366C392.576 46.8402 390.641 51.5941 386.77 55.4982ZM445 24.3914H423.481V32.7623H444.374V44.7159H423.481V58.0819H445V70.0354H410.931V12.4378H445V24.3914ZM421.256 60.2866V42.5112H442.149V34.967H421.256V22.1867H442.775V14.6425H413.156V67.8308H442.775V60.2866H421.256ZM58.528 14.6425H50.428V67.8308H58.528V14.6425Z"
                fill="white" />
        </g>
        <path d="M30.321 21.6028V66.0605H22.269V21.6028H10V14.2546H42.556V21.6028H30.321Z" fill="white" />
        <path d="M60.0081 14.2546V66.0605H51.9561V14.2546H60.0081Z" fill="white" />
        <path
            d="M114.475 17.0394V26.3001C109.821 22.5198 105.005 20.6296 100.029 20.6296C94.5448 20.6296 89.9259 22.5421 86.1699 26.3672C82.3919 30.1699 80.5019 34.8225 80.5019 40.3252C80.5019 45.7608 82.3919 50.3464 86.1699 54.082C89.9489 57.8176 94.5798 59.6853 100.063 59.6853C102.897 59.6853 105.305 59.238 107.286 58.3432C108.392 57.8958 109.533 57.2919 110.708 56.5314C111.906 55.7708 113.162 54.8537 114.475 53.78V63.2085C109.867 65.7362 105.028 66.9999 99.9598 66.9999C92.3328 66.9999 85.8249 64.4163 80.4329 59.2492C75.0649 54.0372 72.3809 47.7516 72.3809 40.3924C72.3809 33.7936 74.6268 27.9106 79.1198 22.7435C84.6498 16.4131 91.8038 13.248 100.582 13.248C105.374 13.248 110.005 14.5118 114.475 17.0394Z"
            fill="white" />
        <path d="M165.658 21.6028V66.0605H157.606V21.6028H145.337V14.2546H177.892V21.6028H165.658Z" fill="white" />
        <path
            d="M215.736 53.4781H192.892L186.947 66.0605H178.273L204.676 11L230.147 66.0605H221.334L215.736 53.4781ZM212.452 46.13L204.538 28.5147L196.244 46.13H212.452Z"
            fill="white" />
        <path
            d="M276.008 17.0394V26.3001C271.354 22.5198 266.539 20.6296 261.562 20.6296C256.079 20.6296 251.459 22.5421 247.704 26.3672C243.925 30.1699 242.036 34.8225 242.036 40.3252C242.036 45.7608 243.925 50.3464 247.704 54.082C251.482 57.8176 256.113 59.6853 261.597 59.6853C264.431 59.6853 266.838 59.238 268.82 58.3432C269.926 57.8958 271.066 57.2919 272.241 56.5314C273.439 55.7708 274.695 54.8537 276.008 53.78V63.2085C271.4 65.7362 266.562 66.9999 261.493 66.9999C253.867 66.9999 247.358 64.4163 241.967 59.2492C236.598 54.0372 233.914 47.7516 233.914 40.3924C233.914 33.7936 236.161 27.9106 240.653 22.7435C246.183 16.4131 253.337 13.248 262.115 13.248C266.908 13.248 271.539 14.5118 276.008 17.0394Z"
            fill="white" />
        <path d="M327.192 21.6028V66.0605H319.139V21.6028H306.87V14.2546H339.426V21.6028H327.192Z" fill="white" />
        <path
            d="M344.437 39.9227C344.437 32.6305 347.19 26.3673 352.697 21.133C358.18 15.8987 364.77 13.2816 372.465 13.2816C380.068 13.2816 386.589 15.9211 392.026 21.2001C397.487 26.4791 400.217 32.8207 400.217 40.2247C400.217 47.6735 397.475 53.9926 391.992 59.1821C386.485 64.394 379.838 67 372.051 67C365.162 67 358.975 64.6848 353.492 60.0545C347.455 54.9321 344.437 48.2215 344.437 39.9227ZM352.559 40.0234C352.559 45.7498 354.54 50.4584 358.503 54.1492C362.443 57.84 366.993 59.6854 372.154 59.6854C377.753 59.6854 382.476 57.8065 386.324 54.0485C390.172 50.2459 392.095 45.6155 392.095 40.1576C392.095 34.6325 390.195 30.0022 386.393 26.2666C382.614 22.5087 377.937 20.6297 372.362 20.6297C366.809 20.6297 362.12 22.5087 358.296 26.2666C354.471 29.9798 352.559 34.5654 352.559 40.0234Z"
            fill="white" />
        <path d="M442 21.6028H420.607V34.0509H441.378V41.399H420.607V58.7124H442V66.0605H412.555V14.2546H442V21.6028Z"
            fill="white" />
    </g>
    <defs>
        <filter id="filter0_f_1384_2" x="0" y="0" width="451" height="77" filterUnits="userSpaceOnUse"
            color-interpolation-filters="sRGB">
            <feFlood flood-opacity="0" result="BackgroundImageFix" />
            <feBlend mode="normal" in="SourceGraphic" in2="BackgroundImageFix" result="shape" />
            <feGaussianBlur stdDeviation="3" result="effect1_foregroundBlur_1384_2" />
        </filter>
        <clipPath id="clip0_1384_2">
            <rect width="451" height="77" fill="white" />
        </clipPath>
    </defs>
</svg>