<svg width="150" height="150" viewBox="0 0 150 150" fill="none" xmlns="http://www.w3.org/2000/svg">
    <g filter="url(#filter0_di_1115_425)">
        <circle cx="75" cy="75" r="30" fill="url(#paint0_radial_1115_425)" />
    </g>
    <path
        d="M66.2897 71.7226C65.3932 71.7226 64.6665 72.4493 64.6665 73.3458V77.4659C64.6665 78.3623 65.3932 79.089 66.2897 79.089H68.2179C68.5691 79.089 68.9109 79.203 69.1918 79.4137L72.7098 82.0522C73.7799 82.8547 75.3069 82.0912 75.3069 80.7536V70.058C75.3069 68.7204 73.7799 67.9569 72.7098 68.7595L69.1918 71.398C68.9109 71.6087 68.5691 71.7226 68.2179 71.7226H66.2897Z"
        fill="black" />
    <path fill-rule="evenodd" clip-rule="evenodd"
        d="M80.1422 67.1829C80.3892 66.6889 80.9899 66.4887 81.4838 66.7357C83.2407 67.6141 84.6241 68.7459 85.5621 70.2116C86.5023 71.6806 86.9476 73.411 86.9476 75.4058C86.9476 77.4006 86.5023 79.131 85.5621 80.6001C84.6241 82.0657 83.2407 83.1975 81.4838 84.0759C80.9899 84.3229 80.3892 84.1227 80.1422 83.6287C79.8952 83.1347 80.0954 82.5341 80.5894 82.2871C82.1065 81.5285 83.1786 80.6141 83.8776 79.5219C84.5744 78.4332 84.9476 77.0943 84.9476 75.4058C84.9476 73.7174 84.5744 72.3785 83.8776 71.2897C83.1786 70.1975 82.1065 69.2831 80.5894 68.5245C80.0954 68.2776 79.8952 67.6769 80.1422 67.1829ZM78.5052 72.0939C78.7522 71.5999 79.3529 71.3997 79.8468 71.6467L79.3996 72.5411C79.8468 71.6467 79.8473 71.6469 79.8477 71.6471L79.8487 71.6476L79.8507 71.6486L79.8551 71.6508L79.8658 71.6563C79.8737 71.6605 79.8833 71.6655 79.8943 71.6715C79.9163 71.6834 79.9444 71.6991 79.9777 71.7187C80.044 71.7578 80.1317 71.8128 80.2334 71.8849C80.4358 72.0283 80.7007 72.2439 80.9655 72.5417C81.5026 73.1459 82.0366 74.0899 82.0366 75.4058C82.0366 76.7217 81.5026 77.6657 80.9655 78.2699C80.7007 78.5678 80.4358 78.7833 80.2334 78.9267C80.1317 78.9988 80.044 79.0538 79.9777 79.0929C79.9444 79.1125 79.9163 79.1282 79.8943 79.1401C79.8833 79.1461 79.8737 79.1512 79.8658 79.1553L79.8551 79.1608L79.8507 79.1631L79.8487 79.1641L79.8477 79.1645C79.8473 79.1647 79.8468 79.165 79.3996 78.2705L79.8468 79.165C79.3529 79.412 78.7522 79.2117 78.5052 78.7178C78.2599 78.2271 78.4558 77.6312 78.9425 77.3812C78.9454 77.3797 78.9483 77.3782 78.9512 77.3767L78.9507 77.377L78.9492 77.3777L78.9465 77.3791L78.9429 77.381C78.9411 77.3819 78.9408 77.3821 78.9417 77.3816C78.9419 77.3815 78.9422 77.3813 78.9425 77.3812C78.9452 77.3797 78.9519 77.3759 78.9623 77.3698C78.9854 77.3562 79.0257 77.3313 79.0774 77.2947C79.1819 77.2206 79.3263 77.1037 79.4707 76.9412C79.7521 76.6245 80.0366 76.1361 80.0366 75.4058C80.0366 74.6755 79.7521 74.1871 79.4707 73.8705C79.3263 73.708 79.1819 73.591 79.0774 73.517C79.0257 73.4803 78.9854 73.4554 78.9623 73.4418C78.9519 73.4357 78.9451 73.4319 78.9425 73.4305C78.9455 73.432 78.9485 73.4336 78.9516 73.4351C78.9518 73.4352 78.9521 73.4354 78.9524 73.4355L79.3883 72.5637C78.9524 73.4355 78.952 73.4353 78.9516 73.4351L78.9507 73.4347L78.9492 73.4339L78.9465 73.4325L78.9429 73.4307C78.9411 73.4297 78.9408 73.4295 78.9417 73.4301C78.9419 73.4302 78.9422 73.4303 78.9425 73.4305C78.4558 73.1804 78.2599 72.5845 78.5052 72.0939Z"
        fill="black" />
    <ellipse cx="74.7165" cy="63.1198" rx="20.2941" ry="13.771" fill="url(#paint1_linear_1115_425)"
        fill-opacity="0.7" />
    <defs>
        <filter id="filter0_di_1115_425" x="0.294122" y="0.294122" width="149.412" height="149.412"
            filterUnits="userSpaceOnUse" color-interpolation-filters="sRGB">
            <feFlood flood-opacity="0" result="BackgroundImageFix" />
            <feColorMatrix in="SourceAlpha" type="matrix" values="0 0 0 0 0 0 0 0 0 0 0 0 0 0 0 0 0 0 127 0"
                result="hardAlpha" />
            <feMorphology radius="1.17647" operator="dilate" in="SourceAlpha" result="effect1_dropShadow_1115_425" />
            <feOffset />
            <feGaussianBlur stdDeviation="21.7647" />
            <feComposite in2="hardAlpha" operator="out" />
            <feColorMatrix type="matrix" values="0 0 0 0 0.454902 0 0 0 0 0.454902 0 0 0 0 0.454902 0 0 0 0.25 0" />
            <feBlend mode="normal" in2="BackgroundImageFix" result="effect1_dropShadow_1115_425" />
            <feBlend mode="normal" in="SourceGraphic" in2="effect1_dropShadow_1115_425" result="shape" />
            <feColorMatrix in="SourceAlpha" type="matrix" values="0 0 0 0 0 0 0 0 0 0 0 0 0 0 0 0 0 0 127 0"
                result="hardAlpha" />
            <feMorphology radius="2.35294" operator="erode" in="SourceAlpha" result="effect2_innerShadow_1115_425" />
            <feOffset dy="-0.588235" />
            <feGaussianBlur stdDeviation="1.76471" />
            <feComposite in2="hardAlpha" operator="arithmetic" k2="-1" k3="1" />
            <feColorMatrix type="matrix" values="0 0 0 0 0 0 0 0 0 0 0 0 0 0 0 0 0 0 0.4 0" />
            <feBlend mode="normal" in2="shape" result="effect2_innerShadow_1115_425" />
        </filter>
        <radialGradient id="paint0_radial_1115_425" cx="0" cy="0" r="1" gradientUnits="userSpaceOnUse"
            gradientTransform="translate(62.9412 115) rotate(-72.1039) scale(59.3418)">
            <stop stop-color="#4A4A4A" />
            <stop offset="1" stop-color="#FFFEFE" />
            <stop offset="1" stop-color="white" />
        </radialGradient>
        <linearGradient id="paint1_linear_1115_425" x1="74.7165" y1="49.3487" x2="74.7165" y2="76.8908"
            gradientUnits="userSpaceOnUse">
            <stop stop-color="white" />
            <stop offset="1" stop-color="white" stop-opacity="0" />
        </linearGradient>
    </defs>
</svg>