<svg width="354" height="67" viewBox="0 0 354 67" fill="none" xmlns="http://www.w3.org/2000/svg">
    <rect x="8" y="9" width="337.899" height="45" rx="7" fill="url(#paint0_linear_1200_553)" fill-opacity="0.3"
        stroke="url(#paint1_linear_1200_553)" stroke-width="2" />
    <g filter="url(#filter0_f_1200_553)">
        <rect x="8" y="9" width="337.899" height="45" rx="7" stroke="url(#paint2_linear_1200_553)" stroke-width="2" />
    </g>
    <g filter="url(#filter1_d_1200_553)">
        <path d="M148.479 27.2205H145.637L147 24.9003H150.959V41.3333H148.479V27.2205Z" fill="white" />
        <path d="M166.913 24.9003L171.457 36.2885L176.066 24.9003H178.78L171.404 42.5679L164.199 24.9003H166.913Z"
            fill="white" />
        <path
            d="M190.381 27.3483L188.369 28.5403C187.993 27.8875 187.635 27.4618 187.294 27.2631C186.94 27.0361 186.482 26.9225 185.921 26.9225C185.233 26.9225 184.662 27.1177 184.208 27.5079C183.754 27.8911 183.527 28.3736 183.527 28.9554C183.527 29.7572 184.123 30.4028 185.315 30.8924L186.954 31.5629C188.288 32.1022 189.263 32.7621 189.881 33.5426C190.498 34.316 190.807 35.2667 190.807 36.3949C190.807 37.9062 190.303 39.155 189.295 40.1413C188.281 41.1346 187.021 41.6313 185.517 41.6313C184.091 41.6313 182.913 41.2091 181.983 40.3648C181.068 39.5204 180.497 38.332 180.27 36.7994L182.782 36.2459C182.895 37.2109 183.094 37.8779 183.378 38.2468C183.889 38.9564 184.634 39.3111 185.613 39.3111C186.386 39.3111 187.028 39.0521 187.539 38.5342C188.05 38.0162 188.305 37.3599 188.305 36.5652C188.305 36.2459 188.259 35.955 188.167 35.6925C188.082 35.4228 187.944 35.178 187.752 34.9581C187.568 34.731 187.326 34.5217 187.028 34.3301C186.73 34.1315 186.376 33.9434 185.964 33.7661L184.378 33.1062C182.129 32.1554 181.004 30.7647 181.004 28.9341C181.004 27.6995 181.476 26.6671 182.42 25.8369C183.364 24.9997 184.538 24.5811 185.943 24.5811C187.837 24.5811 189.317 25.5035 190.381 27.3483Z"
            fill="white" />
        <path d="M205.824 27.2205H202.982L204.345 24.9003H208.304V41.3333H205.824V27.2205Z" fill="white" />
    </g>
    <defs>
        <filter id="filter0_f_1200_553" x="0" y="1" width="353.898" height="61" filterUnits="userSpaceOnUse"
            color-interpolation-filters="sRGB">
            <feFlood flood-opacity="0" result="BackgroundImageFix" />
            <feBlend mode="normal" in="SourceGraphic" in2="BackgroundImageFix" result="shape" />
            <feGaussianBlur stdDeviation="3.5" result="effect1_foregroundBlur_1200_553" />
        </filter>
        <filter id="filter1_d_1200_553" x="121.637" y="0.581055" width="110.667" height="65.9868"
            filterUnits="userSpaceOnUse" color-interpolation-filters="sRGB">
            <feFlood flood-opacity="0" result="BackgroundImageFix" />
            <feColorMatrix in="SourceAlpha" type="matrix" values="0 0 0 0 0 0 0 0 0 0 0 0 0 0 0 0 0 0 127 0"
                result="hardAlpha" />
            <feOffset />
            <feGaussianBlur stdDeviation="12" />
            <feComposite in2="hardAlpha" operator="out" />
            <feColorMatrix type="matrix" values="0 0 0 0 1 0 0 0 0 1 0 0 0 0 1 0 0 0 0.5 0" />
            <feBlend mode="normal" in2="BackgroundImageFix" result="effect1_dropShadow_1200_553" />
            <feBlend mode="normal" in="SourceGraphic" in2="effect1_dropShadow_1200_553" result="shape" />
        </filter>
        <linearGradient id="paint0_linear_1200_553" x1="176.949" y1="102.341" x2="176.949" y2="-3.57971"
            gradientUnits="userSpaceOnUse">
            <stop stop-color="#EAEAEA" />
            <stop offset="1" stop-color="#D9D9D9" stop-opacity="0" />
        </linearGradient>
        <linearGradient id="paint1_linear_1200_553" x1="176.949" y1="8" x2="176.949" y2="55"
            gradientUnits="userSpaceOnUse">
            <stop stop-color="white" />
            <stop offset="1" stop-color="#151515" stop-opacity="0.82" />
        </linearGradient>
        <linearGradient id="paint2_linear_1200_553" x1="176.949" y1="8" x2="176.949" y2="55"
            gradientUnits="userSpaceOnUse">
            <stop stop-color="white" />
            <stop offset="1" stop-color="#151515" stop-opacity="0.82" />
        </linearGradient>
    </defs>
</svg>