<svg width="191" height="191" viewBox="0 0 191 191" fill="none" xmlns="http://www.w3.org/2000/svg">
<g filter="url(#filter0_f_907_62)">
<mask id="path-1-inside-1_907_62" fill="white">
<path fill-rule="evenodd" clip-rule="evenodd" d="M147.225 43.7744C144.86 41.4085 141.024 41.4085 138.658 43.7744L96.9142 85.5179C96.1331 86.299 94.8668 86.299 94.0858 85.5179L52.3423 43.7745C49.9764 41.4085 46.1404 41.4085 43.7745 43.7745C41.4086 46.1404 41.4086 49.9763 43.7745 52.3423L85.5179 94.0857C86.299 94.8668 86.299 96.1331 85.518 96.9141L43.7744 138.658C41.4084 141.024 41.4084 144.86 43.7744 147.226C46.1403 149.591 49.9762 149.591 52.3422 147.226L94.0858 105.482C94.8668 104.701 96.1331 104.701 96.9142 105.482L138.658 147.226C141.024 149.591 144.86 149.591 147.226 147.226C149.592 144.86 149.592 141.024 147.226 138.658L105.482 96.9141C104.701 96.1331 104.701 94.8668 105.482 94.0857L147.225 52.3422C149.591 49.9763 149.591 46.1404 147.225 43.7744Z"/>
</mask>
<path d="M138.658 43.7744L142.193 47.31L142.193 47.31L138.658 43.7744ZM147.225 43.7744L143.69 47.31L143.69 47.31L147.225 43.7744ZM52.3423 43.7745L55.8778 40.2389L55.8778 40.2389L52.3423 43.7745ZM43.7745 43.7745L40.239 40.2389L43.7745 43.7745ZM43.7745 52.3423L47.31 48.8067H47.31L43.7745 52.3423ZM43.7744 138.658L47.3099 142.193L47.3099 142.193L43.7744 138.658ZM43.7744 147.226L40.2388 150.761L40.2388 150.761L43.7744 147.226ZM52.3422 147.226L55.8777 150.761H55.8777L52.3422 147.226ZM138.658 147.226L135.122 150.761V150.761L138.658 147.226ZM147.226 138.658L143.69 142.193L143.69 142.193L147.226 138.658ZM147.225 52.3422L150.761 55.8778L150.761 55.8778L147.225 52.3422ZM105.482 96.9141L101.946 100.45L105.482 96.9141ZM96.9142 105.482L93.3786 109.017L96.9142 105.482ZM85.5179 94.0857L89.0535 90.5502L85.5179 94.0857ZM85.518 96.9141L89.0535 100.45L85.518 96.9141ZM96.9142 85.5179L93.3786 81.9824L96.9142 85.5179ZM94.0858 85.5179L97.6213 81.9824L94.0858 85.5179ZM142.193 47.31C142.606 46.8967 143.277 46.8967 143.69 47.31L150.761 40.2389C146.442 35.9203 139.441 35.9204 135.122 40.2389L142.193 47.31ZM100.45 89.0534L142.193 47.31L135.122 40.2389L93.3786 81.9824L100.45 89.0534ZM48.8068 47.31L90.5502 89.0534L97.6213 81.9824L55.8778 40.2389L48.8068 47.31ZM47.31 47.31C47.7233 46.8967 48.3935 46.8967 48.8068 47.31L55.8778 40.2389C51.5593 35.9204 44.5575 35.9204 40.239 40.2389L47.31 47.31ZM47.31 48.8067C46.8967 48.3934 46.8967 47.7233 47.31 47.31L40.239 40.2389C35.9204 44.5575 35.9204 51.5593 40.239 55.8778L47.31 48.8067ZM89.0535 90.5502L47.31 48.8067L40.239 55.8778L81.9824 97.6212L89.0535 90.5502ZM47.3099 142.193L89.0535 100.45L81.9824 93.3786L40.2388 135.122L47.3099 142.193ZM47.3099 143.69C46.8966 143.277 46.8966 142.607 47.3099 142.193L40.2388 135.122C35.9203 139.441 35.9203 146.443 40.2388 150.761L47.3099 143.69ZM48.8066 143.69C48.3933 144.103 47.7232 144.103 47.3099 143.69L40.2388 150.761C44.5574 155.08 51.5591 155.08 55.8777 150.761L48.8066 143.69ZM90.5502 101.946L48.8066 143.69L55.8777 150.761L97.6213 109.017L90.5502 101.946ZM142.193 143.69L100.45 101.946L93.3786 109.017L135.122 150.761L142.193 143.69ZM143.69 143.69C143.277 144.103 142.607 144.103 142.193 143.69L135.122 150.761C139.441 155.08 146.443 155.08 150.761 150.761L143.69 143.69ZM143.69 142.193C144.103 142.607 144.103 143.277 143.69 143.69L150.761 150.761C155.08 146.443 155.08 139.441 150.761 135.122L143.69 142.193ZM101.946 100.45L143.69 142.193L150.761 135.122L109.018 93.3786L101.946 100.45ZM143.69 48.8067L101.946 90.5502L109.018 97.6212L150.761 55.8778L143.69 48.8067ZM143.69 47.31C144.103 47.7233 144.103 48.3934 143.69 48.8067L150.761 55.8778C155.08 51.5592 155.08 44.5575 150.761 40.2389L143.69 47.31ZM109.018 93.3786C110.189 94.5502 110.189 96.4497 109.018 97.6212L101.946 90.5502C99.2128 93.2838 99.2128 97.716 101.946 100.45L109.018 93.3786ZM97.6213 109.017C96.4497 110.189 94.5502 110.189 93.3786 109.017L100.45 101.946C97.716 99.2127 93.2839 99.2127 90.5502 101.946L97.6213 109.017ZM81.9824 97.6212C80.8109 96.4497 80.8108 94.5502 81.9824 93.3786L89.0535 100.45C91.7872 97.716 91.7871 93.2838 89.0535 90.5502L81.9824 97.6212ZM93.3786 81.9824C94.5502 80.8108 96.4497 80.8108 97.6213 81.9824L90.5502 89.0534C93.2839 91.7871 97.716 91.7871 100.45 89.0534L93.3786 81.9824Z" fill="url(#paint0_linear_907_62)" mask="url(#path-1-inside-1_907_62)"/>
</g>
<g filter="url(#filter1_i_907_62)">
<path fill-rule="evenodd" clip-rule="evenodd" d="M147.225 43.7744C144.86 41.4085 141.024 41.4085 138.658 43.7744L96.9142 85.5179C96.1331 86.299 94.8668 86.299 94.0858 85.5179L52.3423 43.7745C49.9764 41.4085 46.1404 41.4085 43.7745 43.7745C41.4086 46.1404 41.4086 49.9763 43.7745 52.3423L85.5179 94.0857C86.299 94.8668 86.299 96.1331 85.518 96.9141L43.7744 138.658C41.4084 141.024 41.4084 144.86 43.7744 147.226C46.1403 149.591 49.9762 149.591 52.3422 147.226L94.0858 105.482C94.8668 104.701 96.1331 104.701 96.9142 105.482L138.658 147.226C141.024 149.591 144.86 149.591 147.226 147.226C149.592 144.86 149.592 141.024 147.226 138.658L105.482 96.9141C104.701 96.1331 104.701 94.8668 105.482 94.0857L147.225 52.3422C149.591 49.9763 149.591 46.1404 147.225 43.7744Z" fill="url(#paint1_linear_907_62)"/>
</g>
<g style="mix-blend-mode:darken" opacity="0.1">
<mask id="mask0_907_62" style="mask-type:alpha" maskUnits="userSpaceOnUse" x="35" y="42" width="121" height="107">
<rect x="35" y="148" width="121" height="1" fill="black"/>
<rect x="35" y="146" width="121" height="1" fill="black"/>
<rect x="35" y="144" width="121" height="1" fill="black"/>
<rect x="35" y="142" width="121" height="1" fill="black"/>
<rect x="35" y="140" width="121" height="1" fill="black"/>
<rect x="35" y="138" width="121" height="1" fill="black"/>
<rect x="35" y="136" width="121" height="1" fill="black"/>
<rect x="35" y="134" width="121" height="1" fill="black"/>
<rect x="35" y="132" width="121" height="1" fill="black"/>
<rect x="35" y="130" width="121" height="1" fill="black"/>
<rect x="35" y="128" width="121" height="1" fill="black"/>
<rect x="35" y="126" width="121" height="1" fill="black"/>
<rect x="35" y="124" width="121" height="1" fill="black"/>
<rect x="35" y="122" width="121" height="1" fill="black"/>
<rect x="35" y="120" width="121" height="1" fill="black"/>
<rect x="35" y="118" width="121" height="1" fill="black"/>
<rect x="35" y="116" width="121" height="1" fill="black"/>
<rect x="35" y="114" width="121" height="1" fill="black"/>
<rect x="35" y="112" width="121" height="1" fill="black"/>
<rect x="35" y="110" width="121" height="1" fill="black"/>
<rect x="35" y="108" width="121" height="1" fill="black"/>
<rect x="35" y="106" width="121" height="1" fill="black"/>
<rect x="35" y="104" width="121" height="1" fill="black"/>
<rect x="35" y="102" width="121" height="1" fill="black"/>
<rect x="35" y="100" width="121" height="1" fill="black"/>
<rect x="35" y="98" width="121" height="1" fill="black"/>
<rect x="35" y="96" width="121" height="1" fill="black"/>
<rect x="35" y="94" width="121" height="1" fill="black"/>
<rect x="35" y="92" width="121" height="1" fill="black"/>
<rect x="35" y="90" width="121" height="1" fill="black"/>
<rect x="35" y="88" width="121" height="1" fill="black"/>
<rect x="35" y="86" width="121" height="1" fill="black"/>
<rect x="35" y="84" width="121" height="1" fill="black"/>
<rect x="35" y="82" width="121" height="1" fill="black"/>
<rect x="35" y="80" width="121" height="1" fill="black"/>
<rect x="35" y="78" width="121" height="1" fill="black"/>
<rect x="35" y="76" width="121" height="1" fill="black"/>
<rect x="35" y="74" width="121" height="1" fill="black"/>
<rect x="35" y="72" width="121" height="1" fill="black"/>
<rect x="35" y="70" width="121" height="1" fill="black"/>
<rect x="35" y="68" width="121" height="1" fill="black"/>
<rect x="35" y="66" width="121" height="1" fill="black"/>
<rect x="35" y="64" width="121" height="1" fill="black"/>
<rect x="35" y="62" width="121" height="1" fill="black"/>
<rect x="35" y="60" width="121" height="1" fill="black"/>
<rect x="35" y="58" width="121" height="1" fill="black"/>
<rect x="35" y="56" width="121" height="1" fill="black"/>
<rect x="35" y="54" width="121" height="1" fill="black"/>
<rect x="35" y="52" width="121" height="1" fill="black"/>
<rect x="35" y="50" width="121" height="1" fill="black"/>
<rect x="35" y="48" width="121" height="1" fill="black"/>
<rect x="35" y="46" width="121" height="1" fill="black"/>
<rect x="35" y="44" width="121" height="1" fill="black"/>
<rect x="35" y="42" width="121" height="1" fill="black"/>
</mask>
<g mask="url(#mask0_907_62)">
<path fill-rule="evenodd" clip-rule="evenodd" d="M147.226 43.7744C144.86 41.4085 141.024 41.4085 138.658 43.7745L96.9143 85.5179C96.1332 86.299 94.8669 86.299 94.0858 85.5179L52.3424 43.7745C49.9765 41.4085 46.1405 41.4085 43.7746 43.7745C41.4087 46.1404 41.4087 49.9763 43.7746 52.3423L85.518 94.0857C86.2991 94.8668 86.2991 96.1331 85.5181 96.9141L43.7744 138.658C41.4085 141.024 41.4085 144.86 43.7744 147.226C46.1404 149.591 49.9763 149.591 52.3423 147.226L94.0858 105.482C94.8669 104.701 96.1332 104.701 96.9143 105.482L138.658 147.226C141.024 149.591 144.86 149.591 147.226 147.226C149.592 144.86 149.592 141.024 147.226 138.658L105.482 96.9141C104.701 96.1331 104.701 94.8668 105.482 94.0857L147.226 52.3422C149.591 49.9763 149.591 46.1404 147.226 43.7744Z" fill="black"/>
</g>
</g>
<g filter="url(#filter2_f_907_62)">
<path d="M138.658 43.7744L139.365 44.4816V44.4816L138.658 43.7744ZM147.225 43.7744L146.518 44.4815V44.4816L147.225 43.7744ZM52.3423 43.7745L53.0494 43.0674L52.3423 43.7745ZM43.7745 43.7745L43.0674 43.0674H43.0674L43.7745 43.7745ZM43.7745 52.3423L44.4816 51.6352L43.7745 52.3423ZM43.7744 138.658L44.4815 139.365H44.4815L43.7744 138.658ZM43.7744 147.226L43.0672 147.933H43.0672L43.7744 147.226ZM52.3422 147.226L53.0493 147.933L52.3422 147.226ZM138.658 147.226L137.951 147.933L138.658 147.226ZM147.226 138.658L146.518 139.365L147.226 138.658ZM147.225 52.3422L147.933 53.0494L147.225 52.3422ZM105.482 96.9141L104.775 97.6212L105.482 96.9141ZM96.9142 105.482L96.2071 106.189L96.9142 105.482ZM85.5179 94.0857L86.2251 93.3786L85.5179 94.0857ZM85.518 96.9141L86.2251 97.6212L85.518 96.9141ZM96.9142 85.5179L96.2071 84.8108L96.9142 85.5179ZM94.0858 85.5179L94.7929 84.8108L94.0858 85.5179ZM139.365 44.4816C141.34 42.5061 144.543 42.5061 146.518 44.4815L147.933 43.0673C145.176 40.3109 140.707 40.3109 137.951 43.0673L139.365 44.4816ZM97.6213 86.225L139.365 44.4816L137.951 43.0673L96.2071 84.8108L97.6213 86.225ZM51.6352 44.4816L93.3786 86.225L94.7929 84.8108L53.0494 43.0674L51.6352 44.4816ZM44.4816 44.4816C46.457 42.5062 49.6598 42.5062 51.6352 44.4816L53.0494 43.0674C50.293 40.3109 45.8238 40.3109 43.0674 43.0674L44.4816 44.4816ZM44.4816 51.6352C42.5062 49.6597 42.5062 46.457 44.4816 44.4816L43.0674 43.0674C40.3109 45.8238 40.3109 50.2929 43.0674 53.0494L44.4816 51.6352ZM86.2251 93.3786L44.4816 51.6352L43.0674 53.0494L84.8108 94.7928L86.2251 93.3786ZM44.4815 139.365L86.2251 97.6212L84.8108 96.207L43.0672 137.951L44.4815 139.365ZM44.4815 146.518C42.506 144.543 42.5061 141.34 44.4815 139.365L43.0672 137.951C40.3108 140.707 40.3108 145.176 43.0672 147.933L44.4815 146.518ZM51.6351 146.518C49.6596 148.494 46.4569 148.494 44.4815 146.518L43.0672 147.933C45.8237 150.689 50.2928 150.689 53.0493 147.933L51.6351 146.518ZM93.3786 104.775L51.6351 146.518L53.0493 147.933L94.7929 106.189L93.3786 104.775ZM139.365 146.518L97.6213 104.775L96.2071 106.189L137.951 147.933L139.365 146.518ZM146.518 146.518C144.543 148.494 141.34 148.494 139.365 146.518L137.951 147.933C140.707 150.689 145.176 150.689 147.933 147.933L146.518 146.518ZM146.518 139.365C148.494 141.34 148.494 144.543 146.518 146.518L147.933 147.933C150.689 145.176 150.689 140.707 147.933 137.951L146.518 139.365ZM104.775 97.6212L146.518 139.365L147.933 137.951L106.189 96.207L104.775 97.6212ZM146.518 51.6351L104.775 93.3786L106.189 94.7928L147.933 53.0494L146.518 51.6351ZM146.518 44.4816C148.494 46.457 148.494 49.6597 146.518 51.6351L147.933 53.0494C150.689 50.2929 150.689 45.8238 147.933 43.0673L146.518 44.4816ZM106.189 96.207C105.799 95.8165 105.799 95.1833 106.189 94.7928L104.775 93.3786C103.603 94.5502 103.603 96.4497 104.775 97.6212L106.189 96.207ZM94.7929 106.189C95.1834 105.799 95.8165 105.799 96.2071 106.189L97.6213 104.775C96.4497 103.603 94.5502 103.603 93.3786 104.775L94.7929 106.189ZM84.8108 94.7928C85.2014 95.1833 85.2014 95.8165 84.8108 96.207L86.2251 97.6212C87.3966 96.4497 87.3966 94.5502 86.2251 93.3786L84.8108 94.7928ZM96.2071 84.8108C95.8165 85.2013 95.1834 85.2013 94.7929 84.8108L93.3786 86.225C94.5502 87.3966 96.4497 87.3966 97.6213 86.225L96.2071 84.8108Z" fill="url(#paint2_linear_907_62)"/>
</g>
<defs>
<filter id="filter0_f_907_62" x="0" y="0" width="191" height="191" filterUnits="userSpaceOnUse" color-interpolation-filters="sRGB">
<feFlood flood-opacity="0" result="BackgroundImageFix"/>
<feBlend mode="normal" in="SourceGraphic" in2="BackgroundImageFix" result="shape"/>
<feGaussianBlur stdDeviation="21" result="effect1_foregroundBlur_907_62"/>
</filter>
<filter id="filter1_i_907_62" x="42" y="42" width="107" height="108" filterUnits="userSpaceOnUse" color-interpolation-filters="sRGB">
<feFlood flood-opacity="0" result="BackgroundImageFix"/>
<feBlend mode="normal" in="SourceGraphic" in2="BackgroundImageFix" result="shape"/>
<feColorMatrix in="SourceAlpha" type="matrix" values="0 0 0 0 0 0 0 0 0 0 0 0 0 0 0 0 0 0 127 0" result="hardAlpha"/>
<feOffset dy="4"/>
<feGaussianBlur stdDeviation="0.5"/>
<feComposite in2="hardAlpha" operator="arithmetic" k2="-1" k3="1"/>
<feColorMatrix type="matrix" values="0 0 0 0 0 0 0 0 0 0 0 0 0 0 0 0 0 0 0.25 0"/>
<feBlend mode="normal" in2="shape" result="effect1_innerShadow_907_62"/>
</filter>
<filter id="filter2_f_907_62" x="40" y="40" width="111" height="111" filterUnits="userSpaceOnUse" color-interpolation-filters="sRGB">
<feFlood flood-opacity="0" result="BackgroundImageFix"/>
<feBlend mode="normal" in="SourceGraphic" in2="BackgroundImageFix" result="shape"/>
<feGaussianBlur stdDeviation="0.5" result="effect1_foregroundBlur_907_62"/>
</filter>
<linearGradient id="paint0_linear_907_62" x1="57.2683" y1="27.6433" x2="128.824" y2="149.106" gradientUnits="userSpaceOnUse">
<stop stop-color="#5AB2F2"/>
<stop offset="1" stop-color="#4261B1"/>
</linearGradient>
<linearGradient id="paint1_linear_907_62" x1="57.2683" y1="27.6433" x2="128.824" y2="149.106" gradientUnits="userSpaceOnUse">
<stop stop-color="#5AF2CE"/>
<stop offset="1" stop-color="#4261B1"/>
</linearGradient>
<linearGradient id="paint2_linear_907_62" x1="95.5" y1="42" x2="95.5" y2="149" gradientUnits="userSpaceOnUse">
<stop stop-color="white"/>
<stop offset="1" stop-color="#2C80FF"/>
</linearGradient>
</defs>
</svg>
